<?xml version="1.0" encoding="UTF-8"?>
<svg version="1.1" xmlns="http://www.w3.org/2000/svg" width="482" height="518">
<path d="M0 0 C1.14699897 -0.00226556 2.29399793 -0.00453111 3.47575444 -0.00686532 C7.29221161 -0.01315992 11.10863284 -0.01237889 14.9250946 -0.0115509 C17.67244093 -0.01400386 20.41978478 -0.01792042 23.16712952 -0.02172852 C29.83924389 -0.03000393 36.51134942 -0.03278193 43.1834685 -0.03334089 C48.61071883 -0.03381746 54.03796627 -0.0358792 59.46521568 -0.03904152 C74.87915372 -0.04783901 90.29308482 -0.05246222 105.70702539 -0.05171105 C106.95119768 -0.05165111 106.95119768 -0.05165111 108.22050476 -0.05158997 C109.05097465 -0.05154909 109.88144454 -0.0515082 110.73708018 -0.05146609 C124.19347631 -0.0510597 137.64984446 -0.06062973 151.1062325 -0.07472833 C164.94930224 -0.08911677 178.79235835 -0.09599719 192.63543576 -0.09513456 C200.39680394 -0.09480348 208.15814276 -0.09751153 215.91950417 -0.10831261 C222.52731534 -0.11745006 229.13508384 -0.11956628 235.74289862 -0.11280318 C239.10872575 -0.10955449 242.47440486 -0.1105237 245.84023476 -0.11815643 C270.91177738 -0.17130933 295.8362998 1.1419682 316.1035614 18.13371277 C316.1035614 18.79371277 316.1035614 19.45371277 316.1035614 20.13371277 C316.68750671 20.40441589 317.27145203 20.67511902 317.87309265 20.95402527 C333.20047821 29.06062849 342.54693567 48.44061153 347.5410614 64.32121277 C349.07590736 69.68284955 350.22644744 74.70274266 350.23778248 80.29576588 C350.24224032 81.31997224 350.24669817 82.3441786 350.2512911 83.39942151 C350.25101455 85.07711253 350.25101455 85.07711253 350.25073242 86.78869629 C350.25440911 87.98224375 350.2580858 89.17579122 350.2618739 90.40550679 C350.2709832 93.7153968 350.2756066 97.02523729 350.27826321 100.3351351 C350.28217401 103.90662822 350.29175201 107.47810708 350.30047607 111.04959106 C350.32022187 119.67502119 350.33030575 128.30045246 350.33920386 136.92589954 C350.34359114 140.99279801 350.34895692 145.05969519 350.35419273 149.12659264 C350.37120554 162.65569062 350.38569708 176.18478781 350.39294147 189.71389484 C350.39485123 193.22338169 350.39677158 196.73286853 350.39872742 200.24235535 C350.39921116 201.11457162 350.3996949 201.98678788 350.4001933 202.88543495 C350.40848373 216.99724252 350.43380369 231.10896505 350.46630809 245.22073553 C350.49944448 259.72581195 350.51739629 274.23084526 350.52058572 288.73595971 C350.52274508 296.8731124 350.53140888 305.01014119 350.55704689 313.14725685 C350.57884424 320.08127088 350.58676033 327.01513093 350.57708011 333.94917534 C350.57256094 337.48135245 350.57428054 341.01321249 350.59384155 344.54534531 C350.69509156 366.40242945 348.80189334 385.06976442 337.1035614 404.13371277 C336.4435614 404.13371277 335.7835614 404.13371277 335.1035614 404.13371277 C334.86379578 404.85429871 334.62403015 405.57488464 334.3769989 406.31730652 C332.91854048 409.54291547 331.13584652 411.60898108 328.7285614 414.19621277 C327.95770203 415.03281433 327.18684265 415.86941589 326.3926239 416.73136902 C325.63723328 417.52414246 324.88184265 418.31691589 324.1035614 419.13371277 C323.38942078 419.89554871 322.67528015 420.65738464 321.9394989 421.44230652 C320.1035614 423.13371277 320.1035614 423.13371277 318.1035614 423.13371277 C318.1035614 423.79371277 318.1035614 424.45371277 318.1035614 425.13371277 C315.76061268 426.82550431 313.43472597 428.3712604 310.9785614 429.88371277 C309.89127747 430.55479065 309.89127747 430.55479065 308.7820282 431.23942566 C292.77169162 440.91062646 276.95791397 444.54483944 258.40507507 444.81608582 C256.81422173 444.84880751 255.22338455 444.88232302 253.63256359 444.91658306 C238.2719592 445.22612204 222.9098739 445.26250921 207.54678893 445.22123694 C204.40247418 445.21361979 201.25815859 445.20987924 198.1138373 445.20603806 C189.5114978 445.19545985 180.90919196 445.17700369 172.30687577 445.15461928 C165.80760941 445.13772369 159.30834101 445.12321959 152.80906677 445.10972595 C131.03518525 445.06348523 109.26149122 444.99528598 87.4877758 444.89797783 C77.25806944 444.85252218 67.02840661 444.81299794 56.79862976 444.78727722 C47.64386347 444.76425796 38.48920423 444.73092655 29.33452302 444.68501121 C24.5553485 444.6613522 19.77627704 444.64244019 14.99704552 444.63609886 C10.55794658 444.63002792 6.11912419 444.60995721 1.6801281 444.57943726 C0.06856968 444.57072736 -1.5430249 444.56691961 -3.15460587 444.56870461 C-17.47928236 444.57955868 -29.98004378 442.7089772 -42.8964386 436.13371277 C-43.74979797 435.73023621 -44.60315735 435.32675964 -45.4823761 434.91105652 C-51.20988495 432.17066382 -56.97506555 429.18730747 -61.8964386 425.13371277 C-61.8964386 424.47371277 -61.8964386 423.81371277 -61.8964386 423.13371277 C-62.48682922 422.86816589 -63.07721985 422.60261902 -63.6855011 422.32902527 C-69.9906367 418.92024171 -75.13645176 412.12490059 -78.8964386 406.13371277 C-78.8964386 405.47371277 -78.8964386 404.81371277 -78.8964386 404.13371277 C-79.5564386 404.13371277 -80.2164386 404.13371277 -80.8964386 404.13371277 C-90.18194299 388.78550791 -94.21950282 372.79481405 -94.15713501 354.94702148 C-94.16096056 353.76876523 -94.1647861 352.59050898 -94.16872758 351.37654799 C-94.17720489 348.13718817 -94.1768454 344.89797507 -94.17254698 341.65861166 C-94.17006573 338.15266019 -94.1791113 334.64673463 -94.18658447 331.14079285 C-94.19929584 324.28351231 -94.20112954 317.426271 -94.19878421 310.56898067 C-94.19699652 304.99014252 -94.19876034 299.41131621 -94.20300865 293.83247948 C-94.20360384 293.03651003 -94.20419903 292.24054059 -94.20481225 291.42045086 C-94.2060241 289.80306644 -94.20723823 288.18568201 -94.20845463 286.56829759 C-94.21931692 271.41925089 -94.21717418 256.27022648 -94.21106979 241.12117853 C-94.20590453 227.29105886 -94.21714807 213.46100972 -94.236168 199.630904 C-94.2555859 185.40135569 -94.26379532 171.17184067 -94.26004475 156.94227904 C-94.25813834 148.96509492 -94.26056515 140.98797075 -94.27475929 133.0107975 C-94.28672474 126.21783986 -94.2880207 119.42497907 -94.27596913 112.63201997 C-94.27011577 109.17276824 -94.26888137 105.7136932 -94.28097153 102.25445366 C-94.3641366 72.52838892 -89.65104348 47.89583497 -68.56440735 25.66496277 C-48.87513572 6.98465821 -26.60276598 -0.03916947 0 0 Z " fill="#DDF2FD" transform="translate(115.89643859863281,47.86628723144531)"/>
<path d="M0 0 C0.92039063 -0.01546875 1.84078125 -0.0309375 2.7890625 -0.046875 C13.17480017 0.0116362 21.21940789 3.79147277 29 10.5 C29.60714844 11.00144531 30.21429688 11.50289062 30.83984375 12.01953125 C36.92494869 17.49213109 40.43514069 24.80542207 43 32.5 C43.09509169 34.31930199 43.1309292 36.14192546 43.13422108 37.96370792 C43.13867892 39.10606783 43.14313676 40.24842774 43.14772969 41.42540461 C43.14754533 42.68607593 43.14736097 43.94674725 43.14717102 45.24562073 C43.1504699 46.59401856 43.15419552 47.94241541 43.1583125 49.290811 C43.16833814 53.00444453 43.17205021 56.71806188 43.17470181 60.43170702 C43.17860327 64.43393493 43.18818181 68.43615002 43.19691467 72.43836975 C43.21668501 82.10873609 43.22674665 91.77910348 43.23564246 101.44948497 C43.240025 106.00330559 43.24539195 110.55712505 43.25063133 115.11094475 C43.26764525 130.24927434 43.28213894 145.38760321 43.28938007 160.5259409 C43.29128998 164.45520084 43.29321031 168.38446078 43.29516602 172.3137207 C43.29564976 173.29032274 43.2961335 174.26692478 43.2966319 175.27312081 C43.30493035 191.08980091 43.33026342 206.90640533 43.36274669 222.72305239 C43.39582424 238.96147537 43.41382952 255.19985991 43.41702431 271.43831676 C43.41918892 280.5556364 43.42793015 289.67284572 43.45348549 298.79013252 C43.4752021 306.55586419 43.48323824 314.32145875 43.47351871 322.08721734 C43.46897659 326.04798041 43.47085483 330.00846067 43.49028015 333.96918488 C43.50793157 337.59966253 43.50689851 341.22965149 43.49138286 344.86013447 C43.48789087 346.78624228 43.50401849 348.71235533 43.52098733 350.63839155 C43.42621343 363.45709685 38.84439218 373.61945786 29.78125 382.73046875 C19.48949516 391.63550987 8.51431736 394.53672523 -4.8203125 393.91796875 C-10.09869026 393.49753572 -14.41892998 392.16745849 -19 389.5 C-19.76441406 389.06429688 -20.52882812 388.62859375 -21.31640625 388.1796875 C-31.9114362 381.6182984 -39.9729207 372.82425527 -43 360.5 C-44.23873608 350.83970743 -43.95381612 341.01307333 -43.88575459 331.2893666 C-43.86563666 327.31179983 -43.88623971 323.33440191 -43.90145874 319.35684204 C-43.92477712 311.58419837 -43.91080657 303.81205861 -43.88352022 296.03944508 C-43.85291057 286.97575309 -43.85790204 277.91218178 -43.86374763 268.84845271 C-43.87279857 252.67157149 -43.84705538 236.4949299 -43.80273438 220.31811523 C-43.75979395 204.64225021 -43.74565184 188.9666879 -43.76171875 173.29077148 C-43.7792063 156.19139458 -43.7809108 139.09215454 -43.75513482 121.99278325 C-43.75240187 120.16784395 -43.74967553 118.34290464 -43.74695587 116.51796532 C-43.74491384 115.17133927 -43.74491384 115.17133927 -43.74283056 113.79750866 C-43.7342289 107.48810325 -43.73644194 101.17875494 -43.74260712 94.86934853 C-43.74967323 87.17671605 -43.73835261 79.48436022 -43.70409927 71.79179684 C-43.68704593 67.87118647 -43.67773749 63.95098883 -43.69023514 60.03035164 C-43.70144594 56.43463271 -43.68920801 52.83975073 -43.65900543 49.24414816 C-43.64883469 47.34199964 -43.66286749 45.43976797 -43.67804122 43.53765279 C-43.5282107 31.42584616 -39.40029749 21.27618629 -31 12.5 C-21.71283341 3.72878711 -12.78328797 -0.21484518 0 0 Z " fill="#241A73" transform="translate(157,73.5)"/>
<path d="M0 0 C24.15721372 -0.09358595 48.31440013 -0.16404904 72.47175884 -0.20724869 C83.68932353 -0.22784329 94.90677535 -0.2559045 106.12426758 -0.30175781 C115.90540817 -0.34172063 125.68646698 -0.36745534 135.46768695 -0.37635398 C140.6431849 -0.38155274 145.81844896 -0.39370683 150.99387169 -0.42292023 C155.87351092 -0.45023871 160.75282177 -0.45841201 165.63253021 -0.45243073 C167.41541394 -0.45352365 169.1983096 -0.46137904 170.98112679 -0.4768219 C186.2110202 -0.60218035 198.5407238 0.99203091 210 12 C210.7321875 12.69222656 211.464375 13.38445312 212.21875 14.09765625 C220.93996589 23.06293601 223.75547747 32.59015607 223.59204102 44.84667969 C223.07090497 56.2911466 219.31618599 66.86213379 211 75 C204.63450248 80.46235855 197.96264144 83.53568834 190 86 C189.01 86.33 188.02 86.66 187 87 C185.14785544 87.09084396 183.29255695 87.1219511 181.43818665 87.12025452 C179.70650096 87.12232076 179.70650096 87.12232076 177.93983173 87.12442875 C176.03082474 87.11903159 176.03082474 87.11903159 174.08325195 87.11352539 C172.71120043 87.11321908 171.33914874 87.1133525 169.96709728 87.11389065 C166.28969444 87.11411659 162.61232407 87.10831677 158.93492889 87.10128021 C155.48538611 87.09558926 152.03585127 87.09531731 148.58630371 87.09460449 C138.4950315 87.0893552 128.40376534 87.07539407 118.3125 87.0625 C95.769375 87.041875 73.22625 87.02125 50 87 C50 159.6 50 232.2 50 307 C94.4564517 306.80232345 94.4564517 306.80232345 138.91259766 306.54956055 C147.5456543 306.52697754 147.5456543 306.52697754 151.5977478 306.52278137 C154.404837 306.5181563 157.21144488 306.49955463 160.0184021 306.47212219 C163.61571553 306.43743955 167.21234435 306.42761392 170.80980945 306.43463862 C172.73033686 306.43248957 174.65079124 306.40587336 176.57111549 306.37785625 C191.31116791 306.46465605 202.32138577 311.57044092 212.76953125 321.71875 C222.15930456 331.79789907 223.56353505 342.77407503 223.3359375 355.9296875 C222.85677547 366.66529291 217.60302175 375.57677944 210 383 C206.48623799 385.64530378 202.84835722 387.87778765 199 390 C197.906875 390.61875 196.81375 391.2375 195.6875 391.875 C190.49776262 394.0474482 185.31647913 394.1243186 179.74868774 394.12025452 C179.04119019 394.12110894 178.33369263 394.12196337 177.60475576 394.12284368 C175.24640604 394.12448397 172.88812827 394.119001 170.52978516 394.11352539 C168.83434043 394.11324318 167.13889558 394.11340192 165.44345093 394.1139679 C160.8489007 394.11425454 156.25437663 394.10837917 151.65983248 394.10139394 C146.85520339 394.0951384 142.05057369 394.09455486 137.24594116 394.09336853 C128.1513148 394.09026171 119.05670047 394.08205705 109.96207941 394.07201904 C99.60663712 394.06083777 89.25119425 394.05534237 78.89574742 394.05032361 C57.59715823 394.03987391 36.29857988 394.02228702 15 394 C17.65770726 392.22819516 19.53502736 391.43384632 22.5 390.4375 C34.79619779 385.50826619 41.5932915 376.60852119 47 365 C48.02048549 361.76520181 48.12903581 358.80233082 48.13701439 355.41883087 C48.14208893 354.27571332 48.14716347 353.13259576 48.15239179 351.95483828 C48.15313843 350.07024692 48.15313843 350.07024692 48.15390015 348.14758301 C48.15791607 346.79974729 48.16235451 345.45191278 48.1671797 344.10407972 C48.17913678 340.39656913 48.18479166 336.68907154 48.18936086 332.98154545 C48.19532032 328.98406688 48.20692938 324.98660383 48.21765137 320.98913574 C48.24216873 311.33252819 48.25680218 301.67591549 48.26971143 292.01928639 C48.27342406 289.29112861 48.27739724 286.56297134 48.2814641 283.83481407 C48.30670291 266.88839856 48.3287531 249.94198222 48.34119225 232.99555206 C48.34412188 229.07060239 48.34708355 225.14565274 48.35009766 221.22070312 C48.35084371 220.24519121 48.35158976 219.2696793 48.35235842 218.26460642 C48.3650068 202.46872172 48.3982232 186.67294973 48.43989949 170.87711769 C48.48235044 154.65447434 48.50589099 138.43188863 48.51111281 122.20918989 C48.51452349 113.10297044 48.52623812 103.99692705 48.55921555 94.89076233 C48.58726076 87.13387716 48.59819584 79.37720415 48.58702008 71.62027222 C48.5818447 67.66526778 48.58464656 63.71070733 48.60948563 59.75576782 C48.63207739 56.12822185 48.63116265 52.50143622 48.61228175 48.87387604 C48.60818516 46.95425006 48.6285541 45.03461875 48.65006864 43.11510897 C48.54069275 31.07273215 44.76194828 21.83634955 36.39453125 13.19140625 C25.17716483 2.92559457 14.5733192 1.48025711 0 1 C0 0.67 0 0.34 0 0 Z " fill="#8893C9" transform="translate(151,73)"/>
<path d="M0 0 C17.62073225 -0.11716455 35.24134172 -0.2051494 52.86237526 -0.25906086 C61.04542747 -0.28476605 69.22823666 -0.31976804 77.41113281 -0.37719727 C84.5491724 -0.4272693 91.68703586 -0.45934677 98.82524621 -0.47044247 C102.59969876 -0.47692135 106.37364775 -0.49198432 110.14793777 -0.52865028 C113.71197462 -0.56298802 117.27530814 -0.57297853 120.83949471 -0.56553841 C122.74772826 -0.56753614 124.65588799 -0.59423132 126.56391907 -0.62210083 C141.30708991 -0.53563675 152.31879825 4.56792766 162.76953125 14.71875 C172.15930456 24.79789907 173.56353505 35.77407503 173.3359375 48.9296875 C172.85677547 59.66529291 167.60302175 68.57677944 160 76 C156.48623799 78.64530378 152.84835722 80.87778765 149 83 C147.906875 83.61875 146.81375 84.2375 145.6875 84.875 C140.49776262 87.0474482 135.31647913 87.1243186 129.74868774 87.12025452 C129.04119019 87.12110894 128.33369263 87.12196337 127.60475576 87.12284368 C125.24640604 87.12448397 122.88812827 87.119001 120.52978516 87.11352539 C118.83434043 87.11324318 117.13889558 87.11340192 115.44345093 87.1139679 C110.8489007 87.11425454 106.25437663 87.10837917 101.65983248 87.10139394 C96.85520339 87.0951384 92.05057369 87.09455486 87.24594116 87.09336853 C78.1513148 87.09026171 69.05670047 87.08205705 59.96207941 87.07201904 C49.60663712 87.06083777 39.25119425 87.05534237 28.89574742 87.05032361 C7.59715823 87.03987391 -13.70142012 87.02228702 -35 87 C-32.34229274 85.22819516 -30.46497264 84.43384632 -27.5 83.4375 C-16.237086 78.92248346 -8.76327961 70.78238221 -3.72883606 59.93479919 C-0.89852475 52.42133443 -0.67771909 44.45578304 -0.5859375 36.5234375 C-0.56657135 35.47217682 -0.5472052 34.42091614 -0.5272522 33.33779907 C-0.46800698 30.01694569 -0.42129322 26.69605659 -0.375 23.375 C-0.33676946 21.10805873 -0.29771487 18.84113121 -0.2578125 16.57421875 C-0.16235153 11.04960214 -0.07714705 5.52490111 0 0 Z " fill="#8E9ACD" transform="translate(201,380)"/>
<path d="M0 0 C1.48775881 -0.00202568 2.97551665 -0.00494121 4.46327209 -0.00869751 C7.56895477 -0.01309905 10.6743771 -0.00676138 13.7800293 0.00732422 C17.73501585 0.02440005 21.68939073 0.01457162 25.64435482 -0.00339317 C28.71326697 -0.01430297 31.78203732 -0.01075171 34.85095406 -0.0030098 C36.30801023 -0.00102682 37.76507982 -0.00339915 39.22212029 -0.01044846 C53.68471592 -0.06507535 64.96058226 2.48111967 75.89453125 12.50390625 C86.0100636 23.24690583 88.17148071 33.75997778 87.9296875 48.00390625 C87.47938091 58.66857468 83.47109888 66.61087286 75.984375 74.24609375 C64.68449962 84.43632507 53.59787384 87.02330974 38.6953125 86.9296875 C37.16653701 86.93238917 35.63776321 86.93627717 34.10899353 86.94128418 C30.91925549 86.94714942 27.7299684 86.93871476 24.5402832 86.91992188 C20.48101594 86.89715298 16.42280812 86.91026042 12.36357975 86.93421173 C9.21052787 86.94876774 6.05772104 86.94401899 2.90466118 86.93370056 C1.40935575 86.93105921 -0.08597298 86.93421022 -1.58125114 86.94361877 C-15.95100997 87.01421106 -26.44875864 83.96970117 -37.40234375 74.3984375 C-42.10870674 69.44796855 -45.00213596 63.74807812 -47.40234375 57.3984375 C-47.76199219 56.47804688 -48.12164062 55.55765625 -48.4921875 54.609375 C-51.05231323 45.57751513 -50.48467935 33.86391237 -46.40234375 25.3984375 C-39.83280271 14.38431808 -30.67943197 5.05139748 -18.2550354 1.03500366 C-12.26886451 -0.30078523 -6.10387126 -0.02948358 0 0 Z " fill="#6168DC" transform="translate(309.40234375,226.6015625)"/>
<path d="M0 0 C1.00065994 0.00007553 2.00131989 0.00015106 3.03230286 0.00022888 C4.10018539 0.00539017 5.16806793 0.01055145 6.26831055 0.01586914 C7.37103806 0.01728409 8.47376556 0.01869904 9.60990906 0.02015686 C13.12497696 0.02574535 16.63998071 0.0382958 20.1550293 0.05102539 C22.54109608 0.05604188 24.92716387 0.06060452 27.31323242 0.06469727 C33.1563532 0.07571102 38.99943666 0.09243775 44.8425293 0.11352539 C44.94444177 7.62073087 45.01420939 15.12775612 45.06225586 22.63549805 C45.08229801 25.18634712 45.10953923 27.73715066 45.14428711 30.2878418 C45.19312959 33.96683019 45.21557311 37.64520798 45.2331543 41.32446289 C45.25379944 42.45403412 45.27444458 43.58360535 45.29571533 44.74740601 C45.29923175 57.32177656 40.48320686 67.43777383 31.6237793 76.34399414 C21.33202445 85.24903526 10.35684666 88.15025062 -2.9777832 87.53149414 C-8.25616096 87.11106111 -12.57640068 85.78098388 -17.1574707 83.11352539 C-17.92188477 82.67782227 -18.68629883 82.24211914 -19.47387695 81.79321289 C-30.07390349 75.22872945 -37.95412247 66.34750135 -41.1574707 54.11352539 C-42.36463568 45.55754182 -41.79522517 37.31417061 -39.1574707 29.11352539 C-38.81611144 27.78222425 -38.47821115 26.44994391 -38.1574707 25.11352539 C-37.4974707 25.11352539 -36.8374707 25.11352539 -36.1574707 25.11352539 C-35.91254883 24.22793945 -35.66762695 23.34235352 -35.4152832 22.42993164 C-31.71833675 12.6823927 -22.60960367 6.5286713 -13.4699707 2.36352539 C-8.90327523 0.64024408 -4.86838823 -0.01232503 0 0 Z " fill="#332D86" transform="translate(155.157470703125,379.886474609375)"/>
<path d="M0 0 C0.92039063 -0.01546875 1.84078125 -0.0309375 2.7890625 -0.046875 C13.17480017 0.0116362 21.21940789 3.79147277 29 10.5 C29.60714844 11.00144531 30.21429688 11.50289062 30.83984375 12.01953125 C36.92494869 17.49213109 40.43514069 24.80542207 43 32.5 C43.08799471 34.26408128 43.11764257 36.03133766 43.11352539 37.79760742 C43.11341209 39.41894844 43.11341209 39.41894844 43.11329651 41.07304382 C43.10813522 42.23874405 43.10297394 43.40444427 43.09765625 44.60546875 C43.0962413 45.79981033 43.09482635 46.99415192 43.09336853 48.22468567 C43.0877635 52.04564908 43.07521011 55.86655425 43.0625 59.6875 C43.05748565 62.27538978 43.05292263 64.86328048 43.04882812 67.45117188 C43.03779243 73.80080118 43.02104936 80.15039643 43 86.5 C35.75926511 86.57638722 28.51863508 86.62874111 21.27758789 86.66479492 C18.81693641 86.6798334 16.35631151 86.70026942 13.89575195 86.72631836 C10.34840308 86.76291856 6.80141023 86.77977635 3.25390625 86.79296875 C2.1629213 86.80845261 1.07193634 86.82393646 -0.05210876 86.83988953 C-6.59104771 86.84131367 -11.95470928 86.03906888 -18 83.5 C-18 82.84 -18 82.18 -18 81.5 C-18.70125 81.4175 -19.4025 81.335 -20.125 81.25 C-23.6903452 80.31990995 -26.09015572 78.73313631 -29 76.5 C-29 75.84 -29 75.18 -29 74.5 C-29.66 74.5 -30.32 74.5 -31 74.5 C-31 73.84 -31 73.18 -31 72.5 C-31.66 72.5 -32.32 72.5 -33 72.5 C-41.88298857 61.43372267 -44.26187453 49.36260519 -43.25439453 35.52001953 C-41.69867971 23.16686751 -33.12733088 13.88508921 -23.91796875 6.32421875 C-16.15160489 1.46894175 -9.09346128 -0.15283128 0 0 Z " fill="#332E89" transform="translate(157,73.5)"/>
<path d="M0 0 C56.1 0 112.2 0 170 0 C170 0.33 170 0.66 170 1 C169.1800118 1.00423194 168.36002359 1.00846388 167.51518726 1.01282406 C147.5683699 1.11610282 127.62158798 1.22473646 107.67483234 1.33933926 C98.02875792 1.39463085 88.3826798 1.44810618 78.73657227 1.49731445 C70.32959721 1.54020606 61.92264893 1.58649662 53.5157153 1.63687855 C49.06381813 1.66343937 44.61192614 1.68829144 40.15999794 1.70907402 C35.96988964 1.72868805 31.77983214 1.75284602 27.58976936 1.78049088 C26.05188674 1.78983609 24.51399299 1.7975204 22.97609329 1.80341911 C20.87583713 1.81172342 18.77570281 1.82601191 16.67549133 1.84178162 C14.91256225 1.85146044 14.91256225 1.85146044 13.11401844 1.8613348 C10.0425308 1.91527159 10.0425308 1.91527159 7.25856304 2.5684824 C4.30677638 3.13244624 2.65502082 2.28958154 0 1 C0 0.67 0 0.34 0 0 Z " fill="#8490BF" transform="translate(168,74)"/>
<path d="M0 0 C0.66 0.33 1.32 0.66 2 1 C-0.80530847 3.8546576 -3.61707696 6.70277231 -6.43505859 9.54492188 C-7.39324956 10.51318538 -8.34963982 11.48323426 -9.30419922 12.45507812 C-10.6746382 13.8497097 -12.05206367 15.23746521 -13.4296875 16.625 C-14.25710449 17.46289062 -15.08452148 18.30078125 -15.93701172 19.1640625 C-18 21 -18 21 -20 21 C-16.09930726 12.11622333 -7.71524805 5.50828584 0 0 Z " fill="#ECF8FC" transform="translate(59,64)"/>
<path d="M0 0 C0.33 0 0.66 0 1 0 C1.05845196 3.37492629 1.09374742 6.74972087 1.125 10.125 C1.15013672 11.55199219 1.15013672 11.55199219 1.17578125 13.0078125 C1.21104528 18.08583255 1.03333617 22.24487525 -1 27 C-1.33 27 -1.66 27 -2 27 C-2.22823248 17.71854592 -1.90427108 9.13029973 0 0 Z " fill="#6670CD" transform="translate(396,259)"/>
<path d="M0 0 C0.66 0.33 1.32 0.66 2 1 C1.67 1.99 1.34 2.98 1 4 C0.34 4 -0.32 4 -1 4 C-1.19335938 4.86882812 -1.38671875 5.73765625 -1.5859375 6.6328125 C-1.97652344 8.36144531 -1.97652344 8.36144531 -2.375 10.125 C-2.63023438 11.26195313 -2.88546875 12.39890625 -3.1484375 13.5703125 C-3.94636477 16.78398288 -4.90790559 19.87566034 -6 23 C-6.33 23 -6.66 23 -7 23 C-7.81958334 14.47633321 -4.70406679 7.05610019 0 0 Z " fill="#41458A" transform="translate(121,92)"/>
<path d="M0 0 C3.55038751 1.70768079 6.79398379 3.74198184 10.09765625 5.87890625 C12.10493004 7.15121193 12.10493004 7.15121193 15 8 C15 8.66 15 9.32 15 10 C16.32 10.33 17.64 10.66 19 11 C18.01 11.495 18.01 11.495 17 12 C14.35546875 10.92578125 14.35546875 10.92578125 11.1875 9.3125 C10.14980469 8.79300781 9.11210937 8.27351563 8.04296875 7.73828125 C5.0752336 6.04297683 2.53013395 4.29629532 0 2 C0 1.34 0 0.68 0 0 Z " fill="#6A75CE" transform="translate(273,300)"/>
<path d="M0 0 C0.99 0.99 1.98 1.98 3 3 C2 5 2 5 -0.6875 6.125 C-3.9579435 6.98889074 -6.63706182 7.16013991 -10 7 C-7 5 -7 5 -5 4.625 C-2.30899207 3.78406002 -1.495282 2.31768711 0 0 Z " fill="#666FD1" transform="translate(368,306)"/>
<path d="M0 0 C0 3.52032428 -0.70351351 4.4385343 -3 7 C-3.66 7 -4.32 7 -5 7 C-5 7.99 -5 8.98 -5 10 C-6.32 9.67 -7.64 9.34 -9 9 C-6.31941902 5.42589203 -3.57410797 2.68058098 0 0 Z " fill="#6974D0" transform="translate(277,235)"/>
<path d="M0 0 C0.33 0.66 0.66 1.32 1 2 C1.66 2.33 2.32 2.66 3 3 C0.69 4.65 -1.62 6.3 -4 8 C-4.66 7.34 -5.32 6.68 -6 6 C-4.02 4.02 -2.04 2.04 0 0 Z " fill="#3B3D87" transform="translate(129,83)"/>
<path d="M0 0 C0.66 0.33 1.32 0.66 2 1 C0.54712339 2.33927721 -0.91247259 3.67126847 -2.375 5 C-3.18710937 5.7425 -3.99921875 6.485 -4.8359375 7.25 C-7 9 -7 9 -9 9 C-9 8.34 -9 7.68 -9 7 C-7.35 6.34 -5.7 5.68 -4 5 C-4 4.01 -4 3.02 -4 2 C-2.125 0.9375 -2.125 0.9375 0 0 Z " fill="#6571CA" transform="translate(385,298)"/>
<path d="M0 0 C0.66 0.33 1.32 0.66 2 1 C1.67 1.33 1.34 1.66 1 2 C1.99 2.66 2.98 3.32 4 4 C0.04 4 -3.92 4 -8 4 C-5.31143836 2.20762558 -3.0466145 1.01553817 0 0 Z " fill="#888ECC" transform="translate(177,462)"/>
<path d="M0 0 C0.33 0 0.66 0 1 0 C1.21278058 4.46839215 0.59138085 7.82262526 -1 12 C-1.33 12 -1.66 12 -2 12 C-2.28571429 3.42857143 -2.28571429 3.42857143 0 0 Z " fill="#474C91" transform="translate(116,103)"/>
<path d="M0 0 C3.3 0 6.6 0 10 0 C10 0.66 10 1.32 10 2 C5.94568308 3.15837626 3.78187881 2.83691257 0 1 C0 0.67 0 0.34 0 0 Z " fill="#7E87C1" transform="translate(168,74)"/>
<path d="M0 0 C2.475 0.495 2.475 0.495 5 1 C5 1.99 5 2.98 5 4 C2 4 2 4 0 3 C0 2.01 0 1.02 0 0 Z " fill="#D4E8F9" transform="translate(272,303)"/>
<path d="M0 0 C0.66 0 1.32 0 2 0 C3.06775224 1.96466413 4.06553465 3.96855359 5 6 C4.67 6.66 4.34 7.32 4 8 C2.35 6.35 0.7 4.7 -1 3 C-0.67 2.01 -0.34 1.02 0 0 Z " fill="#32337A" transform="translate(124,448)"/>
<path d="M0 0 C0.33 0.99 0.66 1.98 1 3 C0.00390625 4.82421875 0.00390625 4.82421875 -1.4375 6.6875 C-1.91058594 7.31011719 -2.38367187 7.93273437 -2.87109375 8.57421875 C-3.24363281 9.04472656 -3.61617187 9.51523438 -4 10 C-4 5.75354935 -2.18249194 3.61475228 0 0 Z " fill="#F0FBFE" transform="translate(36,88)"/>
<path d="M0 0 C0.66 0.33 1.32 0.66 2 1 C-1.465 3.97 -1.465 3.97 -5 7 C-5.66 6.67 -6.32 6.34 -7 6 C-4.69 4.02 -2.38 2.04 0 0 Z " fill="#F0F9FD" transform="translate(59,64)"/>
<path d="M0 0 C0.99 0.33 1.98 0.66 3 1 C1.86695008 4.39914975 0.87481525 5.05254451 -2 7 C-2.66 6.67 -3.32 6.34 -4 6 C-2.68 4.02 -1.36 2.04 0 0 Z " fill="#858BC9" transform="translate(195,444)"/>
<path d="M0 0 C2.97 0.99 5.94 1.98 9 3 C9 3.33 9 3.66 9 4 C3.48 4.368 3.48 4.368 1.125 2.5625 C0 1 0 1 0 0 Z " fill="#6F79D3" transform="translate(365,228)"/>
</svg>
