<?xml version="1.0" encoding="UTF-8"?>
<svg version="1.1" xmlns="http://www.w3.org/2000/svg" width="938" height="266">
<path d="M0 0 C1.43321497 -0.00435337 2.86642761 -0.00953859 4.29963684 -0.01548767 C8.1737044 -0.02882216 12.04767406 -0.02946253 15.92176008 -0.02692437 C19.16458018 -0.02585082 22.40738078 -0.03074785 25.65019667 -0.03552979 C33.30538698 -0.04660591 40.96052822 -0.04707316 48.61572266 -0.04101562 C56.49330066 -0.03497763 64.37069998 -0.04728673 72.2482475 -0.06858569 C79.02983685 -0.08624218 85.81136952 -0.09219666 92.59298098 -0.08894795 C96.63529298 -0.0871413 100.6774775 -0.08970912 104.71976852 -0.10366249 C108.52347459 -0.11630224 112.32690355 -0.11423918 116.1306057 -0.1012516 C117.51966257 -0.09889953 118.90873932 -0.10157092 120.29777336 -0.10987473 C136.19983068 -0.19802072 147.79832132 3.87047586 159.45947266 14.82543945 C169.6951252 25.73998732 171.21512869 38.46697063 171.12866211 52.890625 C171.13109567 54.32752749 171.13482044 55.76442828 171.13972473 57.20132446 C171.14905766 61.07101366 171.13977431 64.94044655 171.1263926 68.81011558 C171.11500057 72.87559232 171.1191914 76.94105788 171.12113953 81.00654602 C171.12201976 87.82781111 171.11099637 94.64897629 171.0925293 101.47021484 C171.07134034 109.34161817 171.06785885 117.21287557 171.07409126 125.08430165 C171.07979638 132.68062357 171.07412736 140.27689444 171.06291771 147.873209 C171.05828953 151.09589399 171.05739009 154.31854757 171.05950356 157.54123497 C171.06139479 161.33755424 171.05321877 165.13372609 171.03744316 168.93001175 C171.03322145 170.3182915 171.03233543 171.70658626 171.03513336 173.09486961 C171.05995612 187.62067856 168.11036168 200.53654731 157.79931641 211.4621582 C151.37200848 217.16439698 144.10170071 221.22768481 135.75634766 223.2746582 C135.07419189 223.44739258 134.39203613 223.62012695 133.68920898 223.7980957 C129.69775872 224.44666899 125.79780173 224.41672352 121.76025391 224.4074707 C120.82381042 224.40897125 119.88736694 224.4104718 118.92254639 224.41201782 C115.7212741 224.41442963 112.5201095 224.40794702 109.31884766 224.3996582 C108.20061615 224.39744263 107.08238464 224.39522705 105.93026733 224.39294434 C98.6582206 224.37654696 91.38630181 224.34585379 84.11433697 224.30911255 C78.80797593 224.28284637 73.50161853 224.26326516 68.19521999 224.24630928 C57.68976199 224.21246983 47.1845694 224.16144614 36.67931271 224.08754158 C31.34846337 224.05029209 26.01775988 224.01940549 20.6867981 224.00421143 C15.58458487 223.98915 10.4828401 223.95473721 5.38083649 223.90647507 C3.48165155 223.89170785 1.58240102 223.88361361 -0.31684113 223.88274002 C-17.0218879 223.86767663 -29.23716756 221.24704935 -41.53662109 208.98950195 C-50.76991782 198.33569804 -52.99830205 186.79905648 -52.890625 173.05200195 C-52.89741939 171.57364838 -52.90633264 170.0953033 -52.91717529 168.61697388 C-52.93975953 164.64157544 -52.93122007 160.66683364 -52.91527987 156.69142532 C-52.90251136 152.50683228 -52.91439108 148.32229085 -52.92221069 144.13769531 C-52.93127569 137.1139123 -52.91940262 130.09039322 -52.89550781 123.06665039 C-52.86830247 114.97700438 -52.87711888 106.88798872 -52.90463984 98.79835796 C-52.92742027 91.81955207 -52.9304876 84.84093457 -52.91744649 77.86210346 C-52.90970078 73.70849101 -52.90847427 69.55517363 -52.92512894 65.40158081 C-52.93970558 61.4941789 -52.92931546 57.58757982 -52.90065765 53.68026352 C-52.89411646 52.25700073 -52.89582316 50.83366889 -52.90697098 49.41043472 C-53.00869495 35.08940629 -49.24562845 23.49207213 -39.21240234 13.1887207 C-27.54433593 2.1369254 -15.57361409 -0.03134996 0 0 Z " fill="#DDF2FD" transform="translate(108.24365234375,25.725341796875)"/>
<path d="M0 0 C4.56932896 3.18861353 7.5868303 7.37377215 9.33984375 12.6328125 C9.44458016 14.8443704 9.48797351 17.05897842 9.50047302 19.27297974 C9.50556084 19.95114616 9.51064866 20.62931259 9.51589066 21.32802951 C9.53161458 23.60556583 9.54014008 25.88307041 9.54858398 28.16064453 C9.55812263 29.7917857 9.56801379 31.42292484 9.57823181 33.05406189 C9.60962007 38.41622516 9.62988608 43.77840395 9.6484375 49.140625 C9.65338348 50.50960631 9.65338348 50.50960631 9.65842938 51.9062438 C9.68921374 60.51587686 9.71591789 69.12551343 9.73284817 77.73518562 C9.754746 88.74156314 9.79669744 99.74745228 9.86628574 110.75363457 C9.91356982 118.49559479 9.93778772 126.23742347 9.94504505 133.97952354 C9.94999525 138.60165786 9.9650153 143.22324177 10.00478935 147.84521866 C10.04174657 152.19728492 10.05003596 156.5484885 10.03678322 160.90068245 C10.03683702 162.49337153 10.04707331 164.08609971 10.06853485 165.67864418 C10.18360469 174.70374628 9.89009417 181.82198341 3.33984375 188.6328125 C-1.35387102 192.98887309 -5.23961095 193.97580668 -11.66015625 194.1953125 C-18.37907101 193.92224431 -23.46975242 193.02005358 -28.1796875 188.01953125 C-32.49566861 182.40999961 -33.90865263 176.82686978 -33.92085266 169.77027893 C-33.92467821 169.10447231 -33.92850376 168.43866568 -33.93244523 167.7526831 C-33.94271477 165.53499153 -33.93879472 163.3175618 -33.93481445 161.09985352 C-33.93916426 159.5044328 -33.94434831 157.90901417 -33.95030212 156.31359863 C-33.96367394 151.98921806 -33.96427285 147.66492499 -33.96173882 143.34052777 C-33.96066795 139.72721211 -33.96555543 136.11391407 -33.97034425 132.50060219 C-33.981433 123.974916 -33.98188029 115.44927389 -33.97583008 106.92358398 C-33.96978902 98.13486357 -33.98210608 89.3463032 -34.00340015 80.55761009 C-34.02102495 73.00499024 -34.02701615 65.4524213 -34.0237624 57.89978164 C-34.02195092 53.39196573 -34.02457236 48.884264 -34.03847694 44.37646675 C-34.0510651 40.13697391 -34.0491019 35.89773035 -34.03606606 31.65824127 C-34.03370293 30.10505781 -34.03642551 28.55185674 -34.04468918 26.99869347 C-34.05518116 24.87295154 -34.04703743 22.74804233 -34.03437805 20.62232971 C-34.03454579 19.43455712 -34.03471354 18.24678453 -34.03488636 17.02301884 C-33.26369009 10.0459588 -29.96586099 4.7105376 -24.84765625 -0.0546875 C-16.44908704 -5.09382902 -8.26827553 -4.45900838 0 0 Z " fill="#3E409B" transform="translate(108.66015625,42.3671875)"/>
<path d="M0 0 C11.2224562 -0.06958513 22.44486085 -0.12285458 33.66748905 -0.15543652 C38.87890825 -0.17107613 44.09017957 -0.1922834 49.30151367 -0.22631836 C54.33303209 -0.2589724 59.36440848 -0.27686583 64.3960247 -0.28463173 C66.31332064 -0.29016437 68.23060902 -0.3009683 70.14784431 -0.31719017 C72.83839697 -0.33904476 75.52836665 -0.34196357 78.21899414 -0.34057617 C79.00734146 -0.351362 79.79568878 -0.36214783 80.60792542 -0.3732605 C87.89808908 -0.33272329 93.67236213 1.81256312 99 7 C103.65734393 12.29885136 104.75405142 17.03770957 104.41015625 24.0390625 C103.31172014 31.96872512 99.99453346 36.63601065 93.90234375 41.6875 C90.08006489 44.32463695 86.6512583 44.12150665 82.1418457 44.11352539 C81.43771892 44.11364593 80.73359213 44.11376646 80.00812817 44.11389065 C77.73064698 44.11314473 75.45324779 44.10553109 73.17578125 44.09765625 C71.76900268 44.09618584 70.36222356 44.09516574 68.95544434 44.09460449 C63.74112121 44.08936311 58.5268098 44.0754019 53.3125 44.0625 C41.659375 44.041875 30.00625 44.02125 18 44 C18 80.3 18 116.6 18 154 C40.25787608 153.80251669 40.25787608 153.80251669 62.51513672 153.54956055 C66.84985352 153.52697754 66.84985352 153.52697754 68.88821411 153.52278137 C70.29202228 153.51517422 71.69580069 153.4977374 73.09939575 153.47212219 C81.8986264 153.31976438 89.69696724 153.49419399 97 159 C102.72911752 165.24991798 104.29949359 169.51541977 104.21875 177.953125 C103.78509553 183.99331222 101.29606834 188.70393166 97 193 C92.27509519 195.84068164 87.57955904 198.12755498 81.9947052 198.12025452 C80.77688103 198.12231651 80.77688103 198.12231651 79.53445435 198.12442017 C78.64756927 198.12082489 77.7606842 198.11722961 76.84692383 198.11352539 C75.44175255 198.11374443 75.44175255 198.11374443 74.00819397 198.1139679 C70.90778295 198.1132705 67.80743179 198.10548617 64.70703125 198.09765625 C62.55897555 198.09579146 60.41091943 198.09436784 58.26286316 198.09336853 C52.60591459 198.0895482 46.94899165 198.07972201 41.29205322 198.06866455 C35.52087755 198.05844005 29.74969774 198.05386868 23.97851562 198.04882812 C12.65233248 198.03809934 1.32616837 198.02102869 -10 198 C-10 197.67 -10 197.34 -10 197 C-9.16597656 196.99742187 -8.33195312 196.99484375 -7.47265625 196.9921875 C0.33602641 196.72384789 6.39398593 195.77868391 12 190 C17.44280547 183.15864062 16.56390983 175.3260162 16.51757812 167.00219727 C16.52300281 165.36883928 16.53012741 163.7354862 16.53881836 162.10214233 C16.55701503 157.67848444 16.549999 153.25520076 16.53730202 148.83153653 C16.52715364 144.19480481 16.53657295 139.55810448 16.54284668 134.92137146 C16.55011846 127.13461575 16.54054846 119.34801193 16.52148438 111.5612793 C16.49972416 102.56970715 16.50676267 93.57849795 16.52879 84.58693463 C16.5469665 76.85676462 16.5494911 69.12670361 16.53903532 61.39651912 C16.53281177 56.78415319 16.5319332 52.1719576 16.54518127 47.55960274 C16.55677169 43.22151278 16.5486561 38.8838887 16.52560425 34.54584885 C16.52033381 32.95761703 16.52180233 31.36934573 16.53065491 29.78112984 C16.62230863 18.29809221 16.62230863 18.29809221 12 8 C9.84997293 5.93376617 9.84997293 5.93376617 7.4375 4.625 C6.67308594 4.16351563 5.90867187 3.70203125 5.12109375 3.2265625 C4.42113281 2.82179687 3.72117187 2.41703125 3 2 C2.01 1.34 1.02 0.68 0 0 Z " fill="#9DADED" transform="translate(101,39)"/>
<path d="M0 0 C1.80701134 -0.01429802 1.80701134 -0.01429802 3.65052795 -0.02888489 C4.93817551 -0.02797348 6.22582306 -0.02706207 7.55249023 -0.02612305 C8.89957307 -0.03001472 10.24665469 -0.03435035 11.59373474 -0.03910828 C14.40872183 -0.04654641 17.22358342 -0.04629591 20.03857422 -0.04101562 C23.63876968 -0.03521116 27.2384523 -0.05218656 30.83856297 -0.0753603 C33.61731447 -0.09011498 36.39594275 -0.09096724 39.17472649 -0.08785057 C41.14503622 -0.08861053 43.1153269 -0.10246144 45.08558655 -0.11653137 C46.28710861 -0.11030258 47.48863068 -0.10407379 48.7265625 -0.09765625 C50.30824974 -0.09860039 50.30824974 -0.09860039 51.92189026 -0.0995636 C55.23690299 0.33167801 57.11261763 1.31659813 59.79858398 3.2746582 C62.60871052 7.69057134 62.46911216 13.21742159 61.79858398 18.2746582 C58.93942905 23.89437651 58.93942905 23.89437651 54.79858398 25.2746582 C53.27950775 25.3613535 51.75689397 25.3923522 50.23535156 25.38818359 C49.31462357 25.38810806 48.39389557 25.38803253 47.44526672 25.38795471 C46.45455673 25.38279343 45.46384674 25.37763214 44.44311523 25.37231445 C43.42634201 25.37089951 42.40956879 25.36948456 41.36198425 25.36802673 C38.11165435 25.36242527 34.8613931 25.34987253 31.61108398 25.3371582 C29.40861102 25.33214339 27.20613698 25.32758045 25.00366211 25.32348633 C19.60194594 25.31245537 14.20026987 25.29571582 8.79858398 25.2746582 C8.96358398 26.3471582 9.12858398 27.4196582 9.29858398 28.5246582 C9.79858398 32.2746582 9.79858398 32.2746582 9.79858398 36.2746582 C10.71148193 36.28400391 11.62437988 36.29334961 12.56494141 36.30297852 C15.96674446 36.34711001 19.36730565 36.4087722 22.76855469 36.48217773 C24.23783849 36.51032431 25.70727193 36.53157029 27.17675781 36.5456543 C29.29496513 36.5671735 31.41138552 36.61386155 33.52905273 36.6652832 C34.80159912 36.68623047 36.07414551 36.70717773 37.38525391 36.72875977 C41.34257856 37.36165998 43.01509887 38.43669608 45.79858398 41.2746582 C47.62561923 46.75576393 47.70400029 52.93963721 45.61108398 58.3371582 C42.69832521 61.4507969 39.7652795 62.1792236 35.56884766 62.59350586 C33.78571167 62.64063721 33.78571167 62.64063721 31.96655273 62.6887207 C30.67426758 62.72739258 29.38198242 62.76606445 28.05053711 62.8059082 C26.69572403 62.83735834 25.34090624 62.86860581 23.98608398 62.8996582 C22.61171127 62.93787571 21.23736154 62.9769296 19.86303711 63.0168457 C16.50835409 63.11101224 13.15367505 63.1966402 9.79858398 63.2746582 C9.79858398 66.9046582 9.79858398 70.5346582 9.79858398 74.2746582 C11.80408325 74.25109253 11.80408325 74.25109253 13.85009766 74.22705078 C18.81667034 74.17269732 23.78321679 74.13828821 28.75 74.10986328 C30.89848249 74.09478905 33.04693428 74.07432631 35.1953125 74.04833984 C38.28580307 74.01189706 41.37588629 73.99491802 44.46655273 73.98168945 C45.42506638 73.9662056 46.38358002 73.95072174 47.37113953 73.93476868 C52.30545719 73.93352713 55.84035427 73.95672294 59.79858398 77.2746582 C61.03746798 79.75242619 61.19895944 81.83150834 61.48608398 84.5871582 C61.64657227 86.00448242 61.64657227 86.00448242 61.81030273 87.45043945 C61.7946841 91.21453048 60.69077183 93.88681045 58.67358398 97.0246582 C53.05203319 100.77235873 43.38013584 99.41970388 36.88842773 99.4074707 C35.76215469 99.40842743 34.63588165 99.40938416 33.47547913 99.41036987 C31.10458317 99.41104769 28.73368532 99.40922129 26.36279297 99.4050293 C22.74434222 99.39967043 19.1260153 99.40499045 15.50756836 99.41137695 C13.19702121 99.4107162 10.88647414 99.40943509 8.57592773 99.4074707 C7.49971664 99.40949493 6.42350555 99.41151917 5.31468201 99.41360474 C-8.76706623 99.3698611 -8.76706623 99.3698611 -12.85523987 96.24832153 C-15.84233075 92.46233018 -15.89546402 89.51689492 -15.81665039 84.8918457 C-15.8221994 84.06033997 -15.82774841 83.22883423 -15.83346558 82.37213135 C-15.84525124 79.63071589 -15.82099853 76.8909574 -15.79516602 74.1496582 C-15.79345455 72.24064204 -15.79352096 70.33162353 -15.79528809 68.42260742 C-15.79363546 64.42449414 -15.77494793 60.42694198 -15.7434082 56.42895508 C-15.70373086 51.30752566 -15.69936334 46.18683105 -15.70687103 41.0652771 C-15.70994252 37.12411788 -15.69781384 33.18312345 -15.68074036 29.24200439 C-15.67371566 27.35379063 -15.67058518 25.46555819 -15.6714325 23.57733154 C-15.66963209 20.93703545 -15.64822985 18.2976151 -15.62133789 15.6574707 C-15.62426849 14.87913879 -15.6271991 14.10080688 -15.63021851 13.29888916 C-15.55985162 8.81476383 -15.21101028 5.69500395 -12.20141602 2.2746582 C-8.11069021 0.38214994 -4.46969779 0.01951535 0 0 Z " fill="#FDFDFD" transform="translate(314.201416015625,88.725341796875)"/>
<path d="M0 0 C1.12266266 -0.0049926 1.12266266 -0.0049926 2.26800537 -0.01008606 C3.84809763 -0.01513372 5.42820047 -0.01749505 7.00830078 -0.01733398 C9.40024856 -0.01951156 11.79172796 -0.03766539 14.18359375 -0.05664062 C27.39024253 -0.1073936 38.72613378 1.05576562 49.25 9.91796875 C56.18451516 17.15398457 59.43116089 25.78504578 59.734375 35.73046875 C59.45169216 43.60520497 58.01671186 50.78491951 52.859375 56.91796875 C50.83041072 59.12039305 50.83041072 59.12039305 51.34765625 62.31640625 C52.26643716 66.60985638 53.78577565 70.1091721 55.671875 74.04296875 C60.58538734 84.86190562 60.58538734 84.86190562 60.171875 91.16796875 C57.27222422 95.2099062 53.79602343 97.41079235 49.171875 99.16796875 C45.35477646 99.63673524 43.12838867 99.70813585 39.7578125 97.8046875 C35.97519788 93.94779193 34.36313085 89.50401485 32.359375 84.54296875 C31.95267578 83.57617188 31.54597656 82.609375 31.12695312 81.61328125 C28.171875 74.50122768 28.171875 74.50122768 28.171875 72.16796875 C21.571875 72.16796875 14.971875 72.16796875 8.171875 72.16796875 C8.15060547 74.35486328 8.15060547 74.35486328 8.12890625 76.5859375 C8.08199873 78.50914597 8.03375138 80.43232208 7.984375 82.35546875 C7.97857422 83.31517578 7.97277344 84.27488281 7.96679688 85.26367188 C7.82399904 89.84906891 7.65702926 92.45440245 5.03125 96.31640625 C1.59082151 98.5442247 -0.32158044 98.75163373 -4.390625 98.60546875 C-6.06318359 98.57259766 -6.06318359 98.57259766 -7.76953125 98.5390625 C-10.70720738 98.18263947 -12.43103614 97.86930393 -14.828125 96.16796875 C-17.4525077 92.41127382 -17.12375266 88.29872719 -17.11865234 83.89868164 C-17.12536957 83.06732193 -17.13208679 82.23596222 -17.13900757 81.37940979 C-17.15799486 78.6330873 -17.16191195 75.88700903 -17.1640625 73.140625 C-17.17048929 71.23017781 -17.17721757 69.31973161 -17.18423462 67.4092865 C-17.19620876 63.40540281 -17.19991524 59.40160541 -17.19873047 55.39770508 C-17.19852713 50.26837523 -17.22584413 45.13959851 -17.26027489 40.01039982 C-17.28251535 36.06499186 -17.28656891 32.1197177 -17.28551102 28.17425346 C-17.28787071 26.28321868 -17.29671491 24.39218041 -17.31217575 22.50120735 C-17.33178065 19.85596096 -17.32601996 17.2119163 -17.31396484 14.56665039 C-17.32520386 13.78674744 -17.33644287 13.00684448 -17.34802246 12.20330811 C-17.30499205 8.4859818 -16.95101554 6.36148943 -14.9390564 3.19317627 C-10.78804899 -0.78926078 -5.46258782 0.00854327 0 0 Z M8.171875 25.16796875 C7.04193252 29.21533968 7.02446827 33.1178476 7.046875 37.29296875 C7.04300781 38.02128906 7.03914063 38.74960938 7.03515625 39.5 C6.96412778 43.46315361 6.96412778 43.46315361 8.171875 47.16796875 C11.37972221 47.31418899 14.58670461 47.40233526 17.796875 47.48046875 C19.15232422 47.54331055 19.15232422 47.54331055 20.53515625 47.60742188 C24.9303962 47.68762698 28.18424801 47.68822968 31.75390625 44.9296875 C34.76599222 41.48938898 35.1389121 39.72042114 35.34375 35.31640625 C35.02290344 31.30582422 33.27619961 29.15006916 30.35644531 26.5534668 C27.7873359 24.92408639 26.42001459 24.81704299 23.40625 24.875 C22.51679687 24.88466797 21.62734375 24.89433594 20.7109375 24.90429688 C19.33035156 24.94200195 19.33035156 24.94200195 17.921875 24.98046875 C16.51808594 25.00077148 16.51808594 25.00077148 15.0859375 25.02148438 C12.78066173 25.05676921 10.4765644 25.10606594 8.171875 25.16796875 Z " fill="#FDFDFD" transform="translate(490.828125,88.83203125)"/>
<path d="M0 0 C2.63080904 1.05963142 3.91472338 2.03738671 6 4 C7.60875 3.01 7.60875 3.01 9.25 2 C15.80258492 -1.20707501 22.31380026 -1.23625303 29.19140625 1.0703125 C39.72426768 5.89512762 46.05928241 13.50117016 50.25 24.1875 C52.33826317 34.80283778 51.2259919 44.21701554 45.45703125 53.4765625 C40.68226322 60.0104556 34.8225325 65.49860879 27 68 C23.6953125 68.30078125 23.6953125 68.30078125 20.125 68.3125 C18.95195313 68.32925781 17.77890625 68.34601563 16.5703125 68.36328125 C12.42401011 67.94139271 9.77928765 66.70380492 6 65 C5.9906543 65.91813477 5.98130859 66.83626953 5.97167969 67.78222656 C5.92760069 71.19705278 5.86596268 74.61063108 5.79248047 78.02490234 C5.76429912 79.50102196 5.74307034 80.97729169 5.72900391 82.45361328 C5.70753302 84.57923057 5.66086957 86.70304879 5.609375 88.828125 C5.5779541 90.7447998 5.5779541 90.7447998 5.54589844 92.70019531 C4.91300739 96.52584621 4.06196468 97.70039636 1 100 C-4.33218706 101.77739569 -9.2728164 101.67853641 -14.5 99.625 C-17 98 -17 98 -18 96 C-18.11425105 93.12276875 -18.1678629 90.26919632 -18.17700195 87.39111328 C-18.18357315 86.49991791 -18.19014435 85.60872253 -18.19691467 84.69052124 C-18.21666733 81.7337842 -18.22831364 78.77709796 -18.23828125 75.8203125 C-18.24235678 74.81214352 -18.2464323 73.80397453 -18.25063133 72.76525497 C-18.27149885 67.43090773 -18.28579854 62.09658628 -18.29516602 56.76220703 C-18.30624168 51.24490075 -18.34065306 45.72799654 -18.38033772 40.2108326 C-18.40644482 35.9746728 -18.41485251 31.73860974 -18.41844749 27.50237656 C-18.42332748 25.46816156 -18.43498139 23.43395129 -18.45348549 21.39981461 C-18.477755 18.55544113 -18.47693446 15.71212044 -18.4699707 12.86767578 C-18.48278076 12.02493103 -18.49559082 11.18218628 -18.50878906 10.31390381 C-18.47628349 6.67794672 -18.33758007 4.46588458 -16.17326355 1.47897339 C-11.53068763 -1.68044381 -5.35213035 -0.64423791 0 0 Z M7 28 C5.47800557 32.56598329 5.25283266 36.39892714 7.3125 40.8125 C8.98392208 43.22038518 8.98392208 43.22038518 12 45 C17.12935714 45.65359237 17.12935714 45.65359237 21.8203125 43.94921875 C23.99009082 42.17251621 25.73754441 40.52491118 27 38 C27.53365513 32.18654053 27.53365513 32.18654053 25.125 27.0625 C21.61685538 23.65753611 18.9817278 23.66533355 14.26171875 23.7109375 C10.91365699 24.13884177 9.23933019 25.55073261 7 28 Z " fill="#FDFDFD" transform="translate(649,117)"/>
<path d="M0 0 C0 0.66 0 1.32 0 2 C0.66 2 1.32 2 2 2 C7.19718683 8.41319529 9.46352256 15.58998398 9.25390625 23.79296875 C8.62765118 29.2365705 6.28235349 33.52058779 2 37 C-1.63233102 38.21077701 -4.95121987 38.12444164 -8.73046875 38.09765625 C-9.48088943 38.0962413 -10.23131012 38.09482635 -11.00447083 38.09336853 C-13.3988546 38.0877756 -15.79314453 38.07522444 -18.1875 38.0625 C-19.81184761 38.05748408 -21.43619668 38.05292134 -23.06054688 38.04882812 C-27.04040069 38.03780848 -31.02018444 38.02054873 -35 38 C-33.76489151 40.74216746 -33.11010185 41.91887232 -30.625 43.75 C-22.81947488 46.44156039 -15.4801875 45.47767421 -7.89453125 42.62109375 C-5.16643827 41.72672925 -3.62118365 41.83502949 -1 43 C2.50399251 45.93357512 4.90590417 48.51420709 6 53 C5.92174762 56.75611429 5.2790705 58.59999896 3.125 61.6875 C-6.96092865 69.1510872 -22.2564135 68.28267773 -34.1953125 66.53125 C-42.98278468 64.21730748 -50.2029471 58.9405082 -55.4921875 51.609375 C-61.70933155 40.85017234 -62.57819104 29.24320345 -59.5625 17.375 C-56.55089314 8.49980521 -50.27019432 1.50850354 -42.078125 -3.0390625 C-27.80320481 -9.63987146 -13.18186176 -8.31030415 0 0 Z M-34 20 C-34.7850557 22.59230545 -34.7850557 22.59230545 -35 25 C-32.04142591 25.05379226 -29.08382279 25.09357093 -26.125 25.125 C-24.86236328 25.15013672 -24.86236328 25.15013672 -23.57421875 25.17578125 C-22.36572266 25.18544922 -22.36572266 25.18544922 -21.1328125 25.1953125 C-20.38918457 25.20578613 -19.64555664 25.21625977 -18.87939453 25.22705078 C-16.75509765 25.1665597 -16.75509765 25.1665597 -15 23 C-14.92424122 19.95361173 -14.92424122 19.95361173 -16 17 C-22.47565364 13.04265611 -28.72551356 15.00895559 -34 20 Z " fill="#FDFDFD" transform="translate(614,122)"/>
<path d="M0 0 C8.13701646 6.39337008 13.95266946 13.64844162 15.625 24.0625 C16.29863831 36.29765161 14.98823959 45.07651357 7.625 55.0625 C-0.20350563 63.55416416 -9.39996318 67.32407066 -20.75 68.375 C-31.28962596 67.46641155 -41.38346789 63.71277963 -48.6875 55.8125 C-56.50102962 45.86800775 -58.50048775 35.37539731 -57.375 23.0625 C-55.14908049 13.30661278 -48.59381152 4.66926008 -40.375 -0.9375 C-26.80887469 -8.13444444 -13.34836085 -7.66294789 0 0 Z M-29.375 21.0625 C-32.30535973 24.29340944 -33.61742992 26.81720242 -33.8125 31.125 C-33.24871965 36.19902312 -32.10852527 38.58390491 -28.25 41.875 C-24.18580658 43.55368858 -20.69879148 43.99218895 -16.375 43.0625 C-12.45213143 40.74377843 -9.82588839 38.41516518 -8.375 34.0625 C-7.9868437 29.9480432 -8.13418758 27.56338983 -9.9375 23.8125 C-12.98193692 20.37775065 -15.04351994 19.48007529 -19.375 18.0625 C-23.20177925 18.0625 -26.13622935 19.11187677 -29.375 21.0625 Z " fill="#FDFDFD" transform="translate(763.375,120.9375)"/>
<path d="M0 0 C1.54300781 -0.03867188 1.54300781 -0.03867188 3.1171875 -0.078125 C6.81379068 0.3251408 9.47728721 1.60228721 12.125 4.25 C12.21169432 5.7387186 12.23203494 7.231445 12.22265625 8.72265625 C12.21943359 9.62177734 12.21621094 10.52089844 12.21289062 11.44726562 C12.20032227 12.86555664 12.20032227 12.86555664 12.1875 14.3125 C12.18298828 15.26189453 12.17847656 16.21128906 12.17382812 17.18945312 C12.1620011 19.54303065 12.14552025 21.89648477 12.125 24.25 C13.07761719 24.21519531 14.03023437 24.18039063 15.01171875 24.14453125 C16.26597656 24.11746094 17.52023437 24.09039062 18.8125 24.0625 C20.05386719 24.02769531 21.29523437 23.99289063 22.57421875 23.95703125 C26.62107131 24.29092998 29.23742948 25.36242948 32.125 28.25 C32.33298937 30.68644696 32.44944728 33.05968226 32.5 35.5 C32.55607422 36.50353516 32.55607422 36.50353516 32.61328125 37.52734375 C32.67906926 41.24802138 32.20674239 43.13091656 30.08984375 46.21484375 C26.41383274 48.7381662 23.60163497 48.8292883 19.3125 48.5625 C18.61962891 48.53994141 17.92675781 48.51738281 17.21289062 48.49414062 C15.51598427 48.43562661 13.82020139 48.3459548 12.125 48.25 C12.26354088 51.54201643 12.41207024 54.83350709 12.5625 58.125 C12.60181641 59.06214844 12.64113281 59.99929687 12.68164062 60.96484375 C12.72353516 61.86074219 12.76542969 62.75664062 12.80859375 63.6796875 C12.86358032 64.92081299 12.86358032 64.92081299 12.91967773 66.18701172 C13.00738327 68.31179429 13.00738327 68.31179429 14.125 70.25 C16.08316886 70.82678022 18.0683228 71.31369964 20.0625 71.75 C25.90667939 73.03167939 25.90667939 73.03167939 28.125 75.25 C30.09249065 80.36547568 29.73580077 85.72299808 27.75 90.6875 C26.125 93.25 26.125 93.25 24.125 94.25 C5.09584507 95.52278339 5.09584507 95.52278339 -2.875 90.25 C-9.6397375 84.26526368 -11.19820337 77.94818053 -11.875 69.25 C-11.98403074 65.56095983 -11.97088392 61.87770736 -11.9375 58.1875 C-11.93298828 57.22650391 -11.92847656 56.26550781 -11.92382812 55.27539062 C-11.91217706 52.93352578 -11.89582025 50.59179819 -11.875 48.25 C-12.50075928 48.19956543 -13.12651855 48.14913086 -13.77124023 48.09716797 C-14.58794189 48.02127441 -15.40464355 47.94538086 -16.24609375 47.8671875 C-17.05747803 47.79612793 -17.8688623 47.72506836 -18.70483398 47.65185547 C-20.875 47.25 -20.875 47.25 -22.9375 45.375 C-24.8357277 39.04757433 -24.92575374 32.20866283 -21.875 26.25 C-18.2308226 23.8205484 -16.16258728 24.08820425 -11.875 24.25 C-11.92720703 22.38794922 -11.92720703 22.38794922 -11.98046875 20.48828125 C-12.00861584 18.84636774 -12.03591501 17.20443954 -12.0625 15.5625 C-12.08763672 14.74587891 -12.11277344 13.92925781 -12.13867188 13.08789062 C-12.1963146 8.34197299 -12.08316603 5.04146894 -8.875 1.25 C-5.71490467 0.19663489 -3.3196864 0.04967112 0 0 Z " fill="#FDFDFD" transform="translate(867.875,92.75)"/>
<path d="M0 0 C0.73003235 -0.00807175 1.4600647 -0.01614349 2.21221924 -0.02445984 C3.75538791 -0.03826202 5.29858662 -0.04900139 6.84179688 -0.05688477 C8.40894613 -0.06838886 9.97605668 -0.08881606 11.54296875 -0.1184082 C29.19550796 -0.45143988 29.19550796 -0.45143988 36.6953125 6.23828125 C37.23414063 6.89828125 37.77296875 7.55828125 38.328125 8.23828125 C38.88242188 8.89828125 39.43671875 9.55828125 40.0078125 10.23828125 C43.80075413 15.48689238 44.19193093 19.86958706 43.453125 26.23828125 C41.32030191 34.22040358 36.77433922 38.68195119 29.82714844 42.79174805 C25.95088382 44.45360534 22.63386427 44.68901123 18.4921875 44.671875 C17.742789 44.67711685 16.9933905 44.6823587 16.22128296 44.6877594 C14.64297722 44.69415408 13.06462366 44.69287581 11.48632812 44.68432617 C9.0915695 44.67582895 6.69921024 44.70458815 4.3046875 44.73632812 C-5.22570842 44.78021086 -11.87072505 44.29094454 -19.359375 37.80078125 C-24.41361724 31.88009748 -26.05160106 26.6701746 -25.94921875 18.96875 C-25.09280599 13.1567838 -21.99024357 8.27910251 -17.5078125 4.53515625 C-11.73406617 0.7724901 -6.84056266 0.07239709 0 0 Z " fill="#636ADC" transform="translate(173.546875,115.76171875)"/>
<path d="M0 0 C5.30044266 3.49053541 5.30044266 3.49053541 5.99609375 6.66796875 C6.00644122 12.51428727 4.78554514 16.78235467 1.5625 21.6875 C-0.4375 23.6875 -0.4375 23.6875 -2.36108398 23.89868164 C-3.12751221 23.88184326 -3.89394043 23.86500488 -4.68359375 23.84765625 C-5.52083984 23.83669922 -6.35808594 23.82574219 -7.22070312 23.81445312 C-8.09662109 23.79318359 -8.97253906 23.77191406 -9.875 23.75 C-11.60278011 23.71552102 -13.33065391 23.68539134 -15.05859375 23.66015625 C-15.8261499 23.64218994 -16.59370605 23.62422363 -17.38452148 23.60571289 C-19.63926665 23.60019267 -19.63926665 23.60019267 -22.4375 24.6875 C-24.06042497 28.42239444 -23.59105814 32.76888021 -23.61328125 36.77734375 C-23.63647343 38.38217466 -23.66059052 39.98699243 -23.68554688 41.59179688 C-23.72067586 44.11101177 -23.75002521 46.62973966 -23.76342773 49.14916992 C-23.77892727 51.58831931 -23.81913502 54.02606638 -23.86328125 56.46484375 C-23.86137283 57.21394516 -23.85946442 57.96304657 -23.85749817 58.73484802 C-23.97213914 63.65292834 -24.9001024 66.25032248 -28.4375 69.6875 C-34.01839556 71.77509063 -40.00071273 70.65599194 -45.4375 68.6875 C-48.52491746 65.56778645 -48.81564865 63.202714 -48.82568359 58.89672852 C-48.83514008 57.73194473 -48.84459656 56.56716095 -48.8543396 55.36708069 C-48.84826691 54.11285812 -48.84219421 52.85863556 -48.8359375 51.56640625 C-48.83880768 50.27435776 -48.84167786 48.98230927 -48.84463501 47.65110779 C-48.84905302 44.91825584 -48.84264567 42.18569849 -48.82861328 39.45288086 C-48.81153812 35.95796223 -48.82135444 32.46373565 -48.83933067 28.96884251 C-48.85280992 25.62630904 -48.84335721 22.28395935 -48.8359375 18.94140625 C-48.84201019 17.68920792 -48.84808289 16.43700958 -48.8543396 15.14686584 C-48.84488312 13.9789299 -48.83542664 12.81099396 -48.82568359 11.60766602 C-48.82329681 10.58270523 -48.82091003 9.55774445 -48.81845093 8.50172424 C-48.37571426 5.23106605 -47.37324669 3.33884153 -45.4375 0.6875 C-40.80056124 -1.63096938 -34.48331574 -0.75300772 -29.4375 -0.3125 C-26.79316987 0.73516713 -25.52824178 1.71974303 -23.4375 3.6875 C-22.3546875 3.006875 -22.3546875 3.006875 -21.25 2.3125 C-14.32112245 -1.69085148 -7.65194665 -2.92165236 0 0 Z " fill="#FDFDFD" transform="translate(835.4375,117.3125)"/>
<path d="M0 0 C4.56932896 3.18861353 7.5868303 7.37377215 9.33984375 12.6328125 C9.42322415 14.77075775 9.44718122 16.91123259 9.4375 19.05078125 C9.43427734 20.30439453 9.43105469 21.55800781 9.42773438 22.84960938 C9.41516602 24.81510742 9.41516602 24.81510742 9.40234375 26.8203125 C9.39732692 28.15559731 9.39276434 29.49088391 9.38867188 30.82617188 C9.3768707 34.09509723 9.36040672 37.36393241 9.33984375 40.6328125 C5.38884447 40.657511 1.43787501 40.67567173 -2.51318359 40.68774414 C-4.51922176 40.69525286 -6.52523827 40.7079572 -8.53125 40.72070312 C-10.41650391 40.72553711 -10.41650391 40.72553711 -12.33984375 40.73046875 C-14.08370361 40.73832397 -14.08370361 40.73832397 -15.86279297 40.74633789 C-18.66015625 40.6328125 -18.66015625 40.6328125 -20.66015625 39.6328125 C-20.66015625 38.9728125 -20.66015625 38.3128125 -20.66015625 37.6328125 C-21.77390625 37.54 -21.77390625 37.54 -22.91015625 37.4453125 C-26.51138402 36.38131338 -27.62771921 34.71910578 -29.66015625 31.6328125 C-29.66015625 30.9728125 -29.66015625 30.3128125 -29.66015625 29.6328125 C-30.32015625 29.6328125 -30.98015625 29.6328125 -31.66015625 29.6328125 C-34.31085853 23.33739459 -34.98271309 16.25873344 -32.41015625 9.8203125 C-29.14771066 3.8780009 -25.84471324 -0.20359937 -19.41015625 -2.5546875 C-11.69960354 -4.22530725 -6.92167515 -3.73279862 0 0 Z " fill="#5156BC" transform="translate(108.66015625,42.3671875)"/>
<path d="M0 0 C0.14977605 4.1073201 0.25787183 8.21355567 0.32958984 12.32299805 C0.3595233 13.71683482 0.40028771 15.11048713 0.45263672 16.50366211 C0.74346259 24.45005143 0.70878781 30.76439767 -4.35888672 37.27929688 C-9.48054059 42.64933801 -13.49950569 44.30607284 -21 44.5625 C-27.71891476 44.28943181 -32.80959617 43.38724108 -37.51953125 38.38671875 C-42.94719932 31.33231443 -43.27685312 24.64396953 -43 16 C-42.34 16 -41.68 16 -41 16 C-40.9071875 14.948125 -40.9071875 14.948125 -40.8125 13.875 C-39.29531095 8.50648492 -36.20171865 5.76792068 -31.65625 2.86328125 C-25.89188883 0.09019178 -19.84562294 0.32624308 -13.5625 0.25 C-11.7690918 0.20552734 -11.7690918 0.20552734 -9.93945312 0.16015625 C-3.23195685 0 -3.23195685 0 0 0 Z " fill="#5055BB" transform="translate(118,192)"/>
<path d="M0 0 C0.87411026 -0.0033284 1.74822052 -0.0066568 2.64881897 -0.01008606 C4.49723789 -0.01514774 6.34566595 -0.01749462 8.1940918 -0.01733398 C11.02082375 -0.01952017 13.84716523 -0.03768295 16.67382812 -0.05664062 C18.47005075 -0.05957476 20.26627523 -0.06155942 22.0625 -0.0625 C22.90739487 -0.06968552 23.75228973 -0.07687103 24.62278748 -0.08427429 C25.41363235 -0.08119766 26.20447723 -0.07812103 27.01928711 -0.07495117 C28.05828407 -0.0770887 28.05828407 -0.0770887 29.11827087 -0.07926941 C31.48612547 0.21649109 33.06865299 0.92419877 35.09765625 2.16796875 C37.5176267 6.28191852 37.55792569 10.5277013 37.09765625 15.16796875 C35.99570003 19.06719844 35.5470123 19.86839805 32.09765625 22.16796875 C30.21401978 22.43539429 30.21401978 22.43539429 28.07275391 22.45849609 C27.26826813 22.4712558 26.46378235 22.4840155 25.63491821 22.49716187 C24.33643448 22.50050034 24.33643448 22.50050034 23.01171875 22.50390625 C22.11778412 22.51056305 21.22384949 22.51721985 20.30282593 22.52407837 C18.4115403 22.53420344 16.52021895 22.53889543 14.62890625 22.53857422 C11.74028359 22.5429421 8.85319549 22.5792477 5.96484375 22.6171875 C4.1263073 22.62305681 2.2877636 22.62702544 0.44921875 22.62890625 C-0.41238861 22.64327728 -1.27399597 22.65764832 -2.16171265 22.67245483 C-6.22835819 22.64159219 -8.37976225 22.48638123 -11.92431641 20.32666016 C-15.05180112 16.91352514 -15.18351706 13.76917392 -15.125 9.23828125 C-14.78402379 6.06780071 -13.63963444 3.80607684 -11.90234375 1.16796875 C-7.93835094 -0.15336219 -4.13307056 0.00543072 0 0 Z " fill="#FDFDFC" transform="translate(395.90234375,146.83203125)"/>
<path d="M0 0 C19.09733428 -0.02334994 38.19466567 -0.04098949 57.29201126 -0.05181217 C66.15903449 -0.05697067 75.02604886 -0.06400489 83.89306641 -0.07543945 C91.62064487 -0.0853999 99.34821691 -0.09185668 107.07580161 -0.09408849 C111.16830219 -0.09539328 115.26078441 -0.09846453 119.35327911 -0.10573006 C123.20437862 -0.1125117 127.05545217 -0.11461257 130.90655708 -0.11310768 C132.32070367 -0.11338304 133.73485111 -0.11537546 135.14899254 -0.11920547 C137.07875314 -0.1241761 139.00852763 -0.12238976 140.93829346 -0.12025452 C142.01863483 -0.12117631 143.09897621 -0.1220981 144.21205521 -0.12304783 C146.64911227 -0.01548667 148.67630583 0.29408931 151 1 C150.67 1.99 150.34 2.98 150 4 C149.46423969 3.83826325 148.92847939 3.67652651 148.37648392 3.50988865 C145.52610134 2.89832225 142.89310081 2.85932277 139.97625732 2.84178162 C138.1253096 2.82709839 138.1253096 2.82709839 136.23696899 2.81211853 C134.87249795 2.80621477 133.50802649 2.8004043 132.14355469 2.79467773 C130.70455648 2.78509597 129.26556108 2.77508571 127.8265686 2.76467896 C123.92198922 2.73765612 120.01739779 2.71663237 116.11277676 2.69667697 C112.03148136 2.67480125 107.95022302 2.64742032 103.86895752 2.62062073 C96.14134694 2.5707153 88.41371578 2.52576849 80.68606496 2.48259836 C71.88804986 2.43320762 63.09007194 2.3782963 54.2920928 2.32291877 C36.19476305 2.20913172 18.09739822 2.10228554 0 2 C0 1.34 0 0.68 0 0 Z " fill="#EAF5FA" transform="translate(94,26)"/>
<path d="M0 0 C1.1276326 0.01441132 1.1276326 0.01441132 2.27804565 0.02911377 C4.75081151 0.06196664 7.22339302 0.10235065 9.69604492 0.14282227 C11.41525126 0.1671368 13.13446432 0.19097969 14.85368347 0.21437073 C19.36973765 0.27707896 23.88567206 0.34618291 28.40161133 0.41662598 C33.01337245 0.48742945 37.6252182 0.55217444 42.23706055 0.61743164 C51.27947128 0.74627296 60.32176706 0.88187215 69.36401367 1.02172852 C66.32297125 3.04909013 65.76422644 3.27114084 62.35871887 3.26223755 C61.1408947 3.26636154 61.1408947 3.26636154 59.89846802 3.27056885 C59.01158295 3.2633783 58.12469788 3.25618774 57.2109375 3.2487793 C55.80576622 3.24921738 55.80576622 3.24921738 54.37220764 3.24966431 C51.27172628 3.24826949 48.17148438 3.23270106 45.07104492 3.21704102 C42.92299023 3.21331143 40.77493383 3.2104642 38.62687683 3.20846558 C32.96989251 3.20082487 27.31301069 3.18117256 21.65606689 3.15905762 C15.8849018 3.13860865 10.11372017 3.12946589 4.3425293 3.11938477 C-6.98368764 3.09792713 -18.30982847 3.06378586 -29.63598633 3.02172852 C-29.63598633 2.69172852 -29.63598633 2.36172852 -29.63598633 2.02172852 C-28.46680664 1.96114258 -27.29762695 1.90055664 -26.09301758 1.83813477 C-24.54483018 1.75368818 -22.99665365 1.66904226 -21.44848633 1.58422852 C-20.67956055 1.54491211 -19.91063477 1.5055957 -19.1184082 1.46508789 C-18.3675293 1.42319336 -17.61665039 1.38129883 -16.84301758 1.33813477 C-16.15699463 1.30147705 -15.47097168 1.26481934 -14.76416016 1.22705078 C-12.61514261 1.06852885 -12.61514261 1.06852885 -10.48022461 0.51025391 C-6.9658143 -0.09338 -3.55032696 -0.06547092 0 0 Z " fill="#A7B8E6" transform="translate(120.635986328125,233.978271484375)"/>
<path d="M0 0 C0.33 0 0.66 0 1 0 C1.5115438 5.37120991 0.27242598 7.78029282 -3 12 C-3.67095703 12.87011719 -3.67095703 12.87011719 -4.35546875 13.7578125 C-7.78912841 18.01076361 -11.28427115 21.20549401 -16 24 C-18.2109375 23.625 -18.2109375 23.625 -20 23 C-18.68 22.67 -17.36 22.34 -16 22 C-16 21.34 -16 20.68 -16 20 C-14.68 19.67 -13.36 19.34 -12 19 C-12.33 18.01 -12.66 17.02 -13 16 C-11.68 16 -10.36 16 -9 16 C-8.34 14.35 -7.68 12.7 -7 11 C-6.01 11 -5.02 11 -4 11 C-3.896875 10.484375 -3.79375 9.96875 -3.6875 9.4375 C-2.75736134 6.13973565 -1.38604488 3.13366668 0 0 Z " fill="#EAF6F9" transform="translate(273,220)"/>
<path d="M0 0 C0.66 0.66 1.32 1.32 2 2 C0.68 2 -0.64 2 -2 2 C-2 2.66 -2 3.32 -2 4 C-2.68707031 4.17015625 -3.37414062 4.3403125 -4.08203125 4.515625 C-5.43361328 4.87914062 -5.43361328 4.87914062 -6.8125 5.25 C-7.70582031 5.48203125 -8.59914063 5.7140625 -9.51953125 5.953125 C-12.4010538 7.16926365 -13.30227544 8.43283467 -15 11 C-16.32407669 11.68486725 -17.65909241 12.34870203 -19 13 C-21.06570753 14.59876627 -23.0217792 16.29153659 -25 18 C-25.66 17.67 -26.32 17.34 -27 17 C-19.40862915 8.74850995 -11.43958137 1.63422591 0 0 Z " fill="#ECF7FB" transform="translate(91,27)"/>
<path d="M0 0 C0 0.33 0 0.66 0 1 C-5.6952644 2.00266362 -11.10052373 2.05567158 -16.87109375 1.87890625 C-18.25458763 1.84348976 -18.25458763 1.84348976 -19.66603088 1.80735779 C-22.59003141 1.7312477 -25.5137311 1.64699921 -28.4375 1.5625 C-30.42902211 1.5092265 -32.42055857 1.45648653 -34.41210938 1.40429688 C-39.27492734 1.27570449 -44.13749233 1.13981651 -49 1 C-49 0.67 -49 0.34 -49 0 C-43.30764916 -0.16852354 -37.61514726 -0.32898066 -31.92236328 -0.48217773 C-29.9883828 -0.53533392 -28.0544601 -0.59064011 -26.12060547 -0.64819336 C-23.33053037 -0.73084628 -20.54033445 -0.805599 -17.75 -0.87890625 C-16.89446533 -0.90594131 -16.03893066 -0.93297638 -15.1574707 -0.96083069 C-9.98605653 -1.08753186 -5.11781802 -0.76612498 0 0 Z " fill="#F9F7F5" transform="translate(370,186)"/>
<path d="M0 0 C-0.33 0.99 -0.66 1.98 -1 3 C-1.57490173 2.83923477 -2.14980347 2.67846954 -2.74212646 2.51283264 C-4.93890785 2.01387591 -6.87840704 1.84446567 -9.12597656 1.79467773 C-10.32676849 1.7647599 -10.32676849 1.7647599 -11.55181885 1.73423767 C-12.83327789 1.70916893 -12.83327789 1.70916893 -14.140625 1.68359375 C-15.02280701 1.66281265 -15.90498901 1.64203156 -16.81390381 1.62062073 C-19.62585831 1.55535133 -22.43790445 1.49634553 -25.25 1.4375 C-27.15886356 1.39429327 -29.06771793 1.35067829 -30.9765625 1.30664062 C-35.65094826 1.19969313 -40.32542602 1.09836215 -45 1 C-45 0.67 -45 0.34 -45 0 C-39.55586012 -0.16819852 -34.11156683 -0.32869423 -28.66699219 -0.48217773 C-26.81634471 -0.53541864 -24.96575564 -0.59073291 -23.11523438 -0.64819336 C-20.44934681 -0.73060655 -17.78333551 -0.80546525 -15.1171875 -0.87890625 C-14.29507782 -0.90594131 -13.47296814 -0.93297638 -12.62594604 -0.96083069 C-8.2751944 -1.07287432 -4.28843113 -0.89568498 0 0 Z " fill="#EFFCFE" transform="translate(245,27)"/>
<path d="M0 0 C8.44646925 6.15034169 8.44646925 6.15034169 12 10 C11.67 10.99 11.34 11.98 11 13 C10.505 12.29875 10.01 11.5975 9.5 10.875 C6.38924563 7.29763247 2.85619756 4.72367352 -1 2 C-0.67 1.34 -0.34 0.68 0 0 Z " fill="#E9F6F9" transform="translate(258,33)"/>
<path d="M0 0 C2 1.5625 2 1.5625 4 4 C4.25 7.75 4.25 7.75 4 11 C0.36926642 8.57951094 0.01585215 7.14806293 -1 3 C-0.67 2.01 -0.34 1.02 0 0 Z " fill="#E9F6FA" transform="translate(58,214)"/>
<path d="M0 0 C0 0.33 0 0.66 0 1 C-0.63808594 1.12117188 -1.27617188 1.24234375 -1.93359375 1.3671875 C-3.17302734 1.61855469 -3.17302734 1.61855469 -4.4375 1.875 C-5.26121094 2.03742187 -6.08492187 2.19984375 -6.93359375 2.3671875 C-7.61550781 2.57601562 -8.29742187 2.78484375 -9 3 C-9.33 3.66 -9.66 4.32 -10 5 C-12.97 4.505 -12.97 4.505 -16 4 C-15 2 -15 2 -11.9375 0.875 C-7.90141709 -0.19682285 -4.15815272 -0.1459001 0 0 Z " fill="#6771BE" transform="translate(101,39)"/>
<path d="M0 0 C-3.3146667 2.02907167 -5.4315979 2.12742133 -9.25 1.625 C-10.14203125 1.51414063 -11.0340625 1.40328125 -11.953125 1.2890625 C-12.62859375 1.19367188 -13.3040625 1.09828125 -14 1 C-14 0.67 -14 0.34 -14 0 C-8.97703996 -1.13016601 -5.02125926 -0.77916092 0 0 Z " fill="#EFEFEF" transform="translate(806,186)"/>
<path d="M0 0 C3.24299151 2.38957269 5.50902342 4.2047869 7 8 C4.13792848 6.71700242 1.9754912 5.469364 0 3 C0 2.01 0 1.02 0 0 Z " fill="#EBF9FB" transform="translate(66,231)"/>
</svg>
