<?xml version="1.0" encoding="UTF-8"?>
<svg version="1.1" xmlns="http://www.w3.org/2000/svg" width="956" height="261">
<path d="M0 0 C1.27552231 -0.0071553 2.55104462 -0.01431061 3.86521912 -0.02168274 C5.27676367 -0.02452288 6.68830849 -0.02723462 8.09985352 -0.02983093 C9.58834491 -0.03609851 11.07683474 -0.04274557 12.56532288 -0.04974365 C17.45312415 -0.07075987 22.34092562 -0.08114703 27.22875977 -0.09111023 C28.91495785 -0.09515936 30.60115576 -0.09927633 32.28735352 -0.10346031 C40.21417502 -0.12251039 48.14098724 -0.13673912 56.06782722 -0.14507228 C65.19769862 -0.15482997 74.32732661 -0.18111174 83.45711231 -0.22157317 C90.52568922 -0.25181681 97.59419672 -0.26654914 104.66283703 -0.26985329 C108.87859595 -0.27219531 113.09409482 -0.28104376 117.30978394 -0.30631447 C121.28255507 -0.32974366 125.25489771 -0.33376949 129.22772026 -0.32355309 C130.67722443 -0.32306112 132.12675076 -0.32928023 133.57618904 -0.34310913 C148.61016494 -0.47839273 160.37907897 3.09724888 171.47875977 13.39717102 C182.18906511 24.70387388 184.24786198 37.07013423 184.1953125 52.13691711 C184.2010257 53.62629709 184.20799361 55.11567269 184.21611023 56.6050415 C184.23395306 60.62378585 184.23288998 64.64231079 184.22716784 68.66108274 C184.22406273 72.02808894 184.23018315 75.3950538 184.23620659 78.76205409 C184.2502214 86.71175091 184.24871628 94.6613402 184.23730469 102.61103821 C184.22582946 110.78518773 184.23989599 118.95900891 184.26670116 127.13311517 C184.28892467 134.17635689 184.29548053 141.21949604 184.28962475 148.2627703 C184.28626946 152.45828917 184.2885743 156.65359771 184.30587578 160.84908676 C184.3214492 164.79735548 184.31727562 168.74514144 184.29857063 172.6933918 C184.29491313 174.13321026 184.29790928 175.57306533 184.30845642 177.01284981 C184.40896963 191.88168209 181.02189489 203.44227997 170.68969727 214.36982727 C159.19959226 225.23061557 147.54454929 227.45007731 132.24975586 227.43769836 C130.77229474 227.44368914 129.29483674 227.45049595 127.81738281 227.45805359 C123.81703517 227.47566959 119.81677319 227.48040724 115.81639051 227.48168516 C113.31146966 227.48311036 110.80657031 227.48738703 108.30165482 227.4926796 C99.54638547 227.51116867 90.79117689 227.51935203 82.03588867 227.51777649 C73.90216502 227.51657693 65.76870751 227.53764565 57.63505113 227.56926382 C50.63093053 227.59551106 43.62689637 227.60614019 36.62272704 227.60486567 C32.44891406 227.60435831 28.27533751 227.60991484 24.10157394 227.63122177 C20.16977736 227.65074604 16.23843919 227.6506331 12.30662537 227.63618851 C10.87367194 227.63411641 9.44068874 227.63870443 8.0077858 227.65090942 C-7.66086798 227.77559063 -19.83895951 224.12289796 -31.39624023 213.45967102 C-42.09170091 202.29454939 -43.51192974 190.12426594 -43.48339844 175.35273743 C-43.48775137 173.86041002 -43.49293646 172.36808484 -43.49888611 170.87576294 C-43.51222517 166.84054457 -43.51286045 162.80542015 -43.51032281 158.77018404 C-43.50924958 155.39315653 -43.51414547 152.01614775 -43.51892823 148.63912427 C-43.53000592 140.66750828 -43.5304707 132.69593942 -43.52441406 124.72431946 C-43.51837583 116.51955479 -43.53068543 108.31496168 -43.55198413 100.11022627 C-43.56963725 93.04838493 -43.57559563 85.98659801 -43.57234639 78.92473543 C-43.57053921 74.71475135 -43.57311288 70.50488965 -43.58706093 66.29492569 C-43.59969515 62.33363436 -43.59764272 58.37260919 -43.58465004 54.41132164 C-43.58229679 52.96421275 -43.58497367 51.51708479 -43.59327316 50.06999779 C-43.6672857 36.15312482 -41.19232411 25.02608616 -31.77124023 14.39717102 C-30.92561523 13.65467102 -30.07999023 12.91217102 -29.20874023 12.14717102 C-28.73178711 11.66763977 -28.25483398 11.18810852 -27.76342773 10.69404602 C-20.33200131 3.5857251 -10.16037497 0.03915249 0 0 Z " fill="#DDF2FD" transform="translate(100.208740234375,16.852828979492188)"/>
<path d="M0 0 C5.44349518 2.40749493 9.27806265 6.57558455 12.68359375 11.3828125 C13.83606939 14.84023943 13.82119979 17.5326741 13.8374939 21.18156433 C13.84406728 22.22437363 13.84406728 22.22437363 13.85077345 23.28824979 C13.86415362 25.623403 13.87033856 27.95851847 13.87646484 30.29370117 C13.88436648 31.96587291 13.89263547 33.63804294 13.90124512 35.31021118 C13.92745983 40.80705132 13.94277298 46.30389905 13.95703125 51.80078125 C13.9623913 53.69354062 13.96776881 55.58629995 13.9731636 57.47905922 C13.99479221 65.35323394 14.01352837 73.2274066 14.024786 81.10160351 C14.04102152 92.38317609 14.0741899 103.66440406 14.13118684 114.94584674 C14.16990296 122.8797246 14.18942071 130.81351037 14.19470656 138.74748021 C14.19835794 143.48519847 14.2103564 148.22254912 14.2428093 152.96016502 C14.2729191 157.41967462 14.27919147 161.87859475 14.26742554 166.33818436 C14.26720504 167.97159461 14.27549043 169.60503244 14.29307938 171.23834801 C14.45450798 187.09667764 14.45450798 187.09667764 8.68359375 193.3828125 C8.06355469 194.06214844 7.44351563 194.74148437 6.8046875 195.44140625 C6.24910156 195.89644531 5.69351563 196.35148438 5.12109375 196.8203125 C4.56292969 197.29339844 4.00476563 197.76648438 3.4296875 198.25390625 C-1.69902311 201.56978403 -8.47047493 200.7846218 -14.31640625 200.3828125 C-20.44831181 198.61399359 -24.7046921 193.48313856 -28.31640625 188.3828125 C-30.10330753 183.9347768 -30.57057976 180.19022017 -30.58383179 175.41311646 C-30.5883629 174.73576474 -30.59289401 174.05841303 -30.59756243 173.3605355 C-30.61016518 171.10373053 -30.60858878 168.84716817 -30.60693359 166.59033203 C-30.61292139 164.96697684 -30.61972752 163.3436245 -30.62728882 161.72027588 C-30.64492946 157.31939265 -30.64964335 152.91858723 -30.65092039 148.51767206 C-30.65234353 145.76605454 -30.65661619 143.01445671 -30.66191483 140.26284409 C-30.68040798 130.65747576 -30.68858624 121.05216288 -30.68701172 111.44677734 C-30.68581018 102.50239631 -30.70691671 93.55825653 -30.73849905 84.61393654 C-30.76467392 76.92626918 -30.77537852 69.23868057 -30.7741009 61.550969 C-30.77359167 56.96315452 -30.77925357 52.37555456 -30.800457 47.78778458 C-30.81986011 43.47190623 -30.81994983 39.15644663 -30.80542374 34.84055328 C-30.80333717 33.26037101 -30.80802748 31.68016237 -30.82014465 30.10002518 C-30.88717063 20.7509937 -30.83472483 13.44827122 -24.31640625 6.140625 C-23.65640625 5.60179687 -22.99640625 5.06296875 -22.31640625 4.5078125 C-21.65640625 3.95351563 -20.99640625 3.39921875 -20.31640625 2.828125 C-14.19765232 -1.59363077 -7.27711092 -1.93892669 0 0 Z " fill="#3E3F9B" transform="translate(106.31640625,30.6171875)"/>
<path d="M0 0 C11.31826779 -0.09287324 22.63644422 -0.1638529 33.95501614 -0.20724869 C39.2112777 -0.22808149 44.46727765 -0.25632035 49.72338867 -0.30175781 C54.80031451 -0.34536926 59.87698944 -0.36916948 64.95408821 -0.37950897 C66.88649505 -0.38687292 68.81888889 -0.40125287 70.75118828 -0.42292023 C73.46780442 -0.45215784 76.18339714 -0.45594756 78.90014648 -0.45410156 C80.08590775 -0.47567322 80.08590775 -0.47567322 81.29562378 -0.49768066 C87.84869384 -0.44981636 94.01971623 1.1972427 98.89218807 5.77947617 C104.49467649 12.01719082 105.61589 16.97036246 105.51953125 25.37109375 C104.58915062 31.86976744 100.96728211 36.37557612 96.140625 40.64453125 C91.23083194 43.75346956 86.51755617 44.24739344 80.80126953 44.22705078 C79.74453694 44.22741239 79.74453694 44.22741239 78.66645622 44.2277813 C76.40510936 44.22629856 74.14409973 44.2111142 71.8828125 44.1953125 C70.4790869 44.19236883 69.0753591 44.19033038 67.67163086 44.18920898 C62.48938691 44.1787592 57.30719008 44.15083664 52.125 44.125 C40.53375 44.08375 28.9425 44.0425 17 44 C17 81.29 17 118.58 17 157 C40.05100939 156.88138405 40.05100939 156.88138405 63.10180664 156.72973633 C67.57702637 156.71618652 67.57702637 156.71618652 69.67723083 156.71366882 C71.1327846 156.70908548 72.58832752 156.69858298 74.04380798 156.68327332 C76.25865224 156.66115647 78.4728052 156.65828712 80.68774414 156.65942383 C81.93350723 156.65276199 83.17927032 156.64610016 84.46278381 156.63923645 C91.20070352 157.32644235 96.15012795 160.25790289 101 165 C105.65013787 170.99623042 105.92191301 176.5567655 105 184 C103.38353549 190.92617574 99.77241839 194.57051476 94.12109375 198.6875 C89.71818273 201.41195323 85.48931894 201.13540884 80.48950195 201.11352539 C79.62099609 201.11367142 78.75249023 201.11381744 77.85766602 201.1139679 C74.98451243 201.11327076 72.11142352 201.10548761 69.23828125 201.09765625 C67.24716731 201.09579137 65.25605292 201.09436779 63.26493835 201.09336853 C58.02227514 201.0895489 52.77963959 201.07972332 47.5369873 201.06866455 C42.18807347 201.05843854 36.83915517 201.05386835 31.49023438 201.04882812 C20.99347742 201.03810058 10.49674101 201.02103077 0 201 C0.6180249 200.70125977 1.2360498 200.40251953 1.87280273 200.09472656 C4.22939648 198.88194493 6.04964818 197.47197728 8.0625 195.75 C8.73410156 195.18796875 9.40570313 194.6259375 10.09765625 194.046875 C14.39813812 189.41966247 15.37533776 185.01890738 15.38095093 178.82702637 C15.38797089 177.77825546 15.38797089 177.77825546 15.39513266 176.70829725 C15.40704915 174.37760119 15.39763894 172.04749677 15.38818359 169.71679688 C15.3922508 168.04093585 15.39759351 166.36507752 15.40411377 164.68922424 C15.41777552 160.1458661 15.41249344 155.60271263 15.40297651 151.05935097 C15.39537402 146.30156534 15.40242717 141.54379707 15.40713501 136.78601074 C15.41259084 128.7965989 15.40540547 120.80727029 15.39111328 112.81787109 C15.3747871 103.58492026 15.38007573 94.35216818 15.3965925 85.11922216 C15.41021228 77.18784558 15.41212462 69.25652879 15.40427649 61.32514429 C15.39960268 56.58989359 15.3989671 51.85473626 15.40888596 47.11949158 C15.41756048 42.66741076 15.41152483 38.21558585 15.39420319 33.76353264 C15.39024094 32.13091901 15.39136791 30.49828379 15.39799118 28.86567879 C15.40620738 26.63448763 15.39588508 24.40411298 15.38095093 22.17297363 C15.37981985 20.9252845 15.37868877 19.67759537 15.37752342 18.39209747 C14.65527376 11.90258952 11.66090605 8.21224228 6.78515625 4.2578125 C4.63763412 2.74467875 2.51222819 1.76128127 0 1 C0 0.67 0 0.34 0 0 Z " fill="#9CABEC" transform="translate(104,30)"/>
<path d="M0 0 C1.30808121 -0.00622879 2.61616241 -0.01245758 3.96388245 -0.01887512 C5.38339623 -0.01018743 6.80290628 -0.00086949 8.22241211 0.0090332 C9.68541971 0.00955221 11.14842802 0.00903293 12.61143494 0.00752258 C15.67205262 0.00761213 18.73240593 0.01800655 21.79296875 0.03613281 C25.71269067 0.05883961 29.63202729 0.05935861 33.55179691 0.05261517 C36.57070836 0.04927153 39.58953222 0.05591236 42.60842705 0.0657444 C44.05369038 0.06958837 45.49896346 0.07074795 46.94423103 0.06915855 C48.96414507 0.06878707 50.98404606 0.08290194 53.00390625 0.09765625 C54.72668541 0.10456734 54.72668541 0.10456734 56.48426819 0.11161804 C59.38209809 0.367445 61.03994057 0.7614145 63.43725586 2.37231445 C66.17314475 7.4445656 65.99453226 12.75733249 65.43725586 18.37231445 C63.83426935 22.1126163 62.83987888 23.10389911 59.43725586 25.37231445 C57.29219055 25.61282349 57.29219055 25.61282349 54.78222656 25.59936523 C53.37110344 25.59913864 53.37110344 25.59913864 51.93147278 25.59890747 C50.91888901 25.5885849 49.90630524 25.57826233 48.86303711 25.56762695 C47.30458321 25.56338211 47.30458321 25.56338211 45.71464539 25.55905151 C42.39289889 25.54784727 39.071421 25.52274209 35.74975586 25.49731445 C33.49910871 25.48728498 31.24845734 25.47815907 28.99780273 25.4699707 C23.47751678 25.44790711 17.95743188 25.41337544 12.43725586 25.37231445 C12.43725586 29.33231445 12.43725586 33.29231445 12.43725586 37.37231445 C13.31986084 37.36184082 14.20246582 37.35136719 15.11181641 37.34057617 C18.40123124 37.30639481 21.69045599 37.28136736 24.97998047 37.26245117 C26.40090929 37.25242299 27.82181764 37.23879704 29.24267578 37.22143555 C31.2906603 37.19704624 33.33837084 37.18579956 35.38647461 37.17700195 C36.61712646 37.16652832 37.84777832 37.15605469 39.11572266 37.14526367 C43.27992463 37.42991695 46.19556781 38.17671526 49.22631836 41.0949707 C50.83373545 44.11795188 50.83591778 46.39855439 50.81225586 49.80981445 C50.81999023 50.92227539 50.82772461 52.03473633 50.83569336 53.1809082 C50.39021719 56.74908493 49.69156097 58.58150442 47.43725586 61.37231445 C43.37366639 63.48019011 39.92071632 63.60621624 35.38647461 63.56762695 C34.727668 63.56479706 34.06886139 63.56196716 33.39009094 63.55905151 C31.30145524 63.5479237 29.2132603 63.52283393 27.12475586 63.49731445 C25.70223604 63.48727504 24.27970946 63.47815087 22.85717773 63.4699707 C19.38372905 63.44800893 15.91053553 63.41353092 12.43725586 63.37231445 C12.43725586 67.33231445 12.43725586 71.29231445 12.43725586 75.37231445 C13.83484131 75.35136719 15.23242676 75.33041992 16.67236328 75.30883789 C21.86252579 75.23638298 27.05264368 75.19049427 32.24316406 75.15258789 C34.48868327 75.13248505 36.73415021 75.10519841 38.97949219 75.07055664 C42.20903426 75.02198136 45.43788361 74.99933208 48.66772461 74.98168945 C50.17111641 74.95072174 50.17111641 74.95072174 51.70487976 74.91912842 C56.09887246 74.91771705 58.70394888 74.93927139 62.54785156 77.20922852 C66.10332208 81.27971163 65.70754146 85.55357171 65.65991211 90.7043457 C65.3862343 93.98367808 64.5996928 95.88951648 62.43725586 98.37231445 C58.89609312 100.73308961 57.4058424 100.62520966 53.20922852 100.63110352 C51.92424469 100.63740784 50.63926086 100.64371216 49.31533813 100.65020752 C47.91066349 100.64662697 46.50599009 100.64252482 45.10131836 100.63793945 C43.66026748 100.63928696 42.21921705 100.6412282 40.77816772 100.64373779 C37.75693435 100.64668694 34.73581923 100.64239946 31.71459961 100.63305664 C27.84874323 100.62168259 23.98316519 100.62820974 20.11731911 100.64020157 C17.14041056 100.64744333 14.16356751 100.64512127 11.18665695 100.63994598 C9.76175275 100.63861483 8.33684253 100.64023847 6.91194534 100.64490509 C4.91598887 100.65000583 2.92001147 100.64084808 0.92407227 100.63110352 C-0.21049408 100.62951233 -1.34506042 100.62792114 -2.51400757 100.62628174 C-5.64288234 100.36563874 -7.79199824 99.83450759 -10.56274414 98.37231445 C-14.10696673 93.05598056 -13.68983655 86.97661586 -13.70800781 80.74389648 C-13.71136642 80.01605957 -13.71472504 79.28822266 -13.71818542 78.53833008 C-13.7276192 76.15224461 -13.72963462 73.76622987 -13.73071289 71.38012695 C-13.73393047 69.70775322 -13.73729491 68.03537975 -13.74079895 66.36300659 C-13.74677109 62.86463773 -13.7486408 59.36629351 -13.74804688 55.86791992 C-13.7479453 51.40398773 -13.76160115 46.94021476 -13.77881908 42.47632027 C-13.78998298 39.02403042 -13.79196475 35.57177855 -13.79143715 32.1194725 C-13.79261051 30.47458217 -13.79699578 28.82969065 -13.80476952 27.18481827 C-13.87919598 9.81237296 -13.87919598 9.81237296 -11.56274414 3.37231445 C-7.73904985 0.37409157 -4.78507743 -0.00262056 0 0 Z " fill="#010101" transform="translate(317.562744140625,80.627685546875)"/>
<path d="M0 0 C1.23278687 -0.02398109 1.23278687 -0.02398109 2.49047852 -0.04844666 C3.81390259 -0.05649071 3.81390259 -0.05649071 5.1640625 -0.06469727 C6.08437256 -0.07372574 7.00468262 -0.08275421 7.95288086 -0.09205627 C9.90296177 -0.1065582 11.85309133 -0.11544537 13.80322266 -0.11914062 C16.75119222 -0.13095179 19.69700863 -0.18006393 22.64453125 -0.23071289 C33.09796488 -0.32022723 41.54920532 -0.07222412 50.7890625 5.30639648 C51.49579102 5.70592529 52.20251953 6.1054541 52.93066406 6.51708984 C60.02289138 10.76942952 64.03361297 18.7651662 66.7890625 26.30639648 C68.8494289 35.08096386 68.50393577 44.02868974 64.7890625 52.30639648 C63.69323488 53.84838249 62.56770832 55.36967657 61.4140625 56.86889648 C59.30412737 59.810645 59.30412737 59.810645 58.82421875 63.27124023 C59.61607554 65.74164376 60.65916492 67.96799976 61.7890625 70.30639648 C62.7353416 72.41524705 63.65841079 74.5320154 64.56567383 76.65795898 C65.20371548 78.14816312 65.86055411 79.63048945 66.5378418 81.10327148 C68.61738921 85.87286556 69.22532719 89.10879287 67.7890625 94.30639648 C64.20991791 98.05201292 60.88076075 100.28805683 55.7890625 101.30639648 C52.35152842 101.2998488 48.993556 101.25069287 46.19213867 99.05444336 C44.5283194 96.98154515 43.57264408 94.9695411 42.52734375 92.52514648 C42.13095703 91.60088867 41.73457031 90.67663086 41.32617188 89.72436523 C40.92205078 88.76143555 40.51792969 87.79850586 40.1015625 86.80639648 C39.47797852 85.36200195 39.47797852 85.36200195 38.84179688 83.88842773 C35.7890625 76.70021576 35.7890625 76.70021576 35.7890625 73.30639648 C28.8590625 73.30639648 21.9290625 73.30639648 14.7890625 73.30639648 C14.94671792 79.99297609 14.94671792 79.99297609 15.14941406 86.67822266 C15.20096185 91.01364081 15.19567562 93.61393782 12.9609375 97.41967773 C8.87923027 100.96547736 4.61252742 100.57962993 -0.54296875 100.52514648 C-3.85196947 100.25383749 -5.74074297 99.53753993 -8.2109375 97.30639648 C-10.8536745 93.51345648 -10.49238918 89.36768093 -10.46972656 84.92944336 C-10.4732312 84.08672379 -10.47673584 83.24400421 -10.48034668 82.37574768 C-10.48914393 79.59212998 -10.48332191 76.80876674 -10.4765625 74.02514648 C-10.47790973 72.08988394 -10.47985074 70.15462173 -10.48236084 68.21936035 C-10.48530938 64.16419247 -10.48102309 60.10911272 -10.47167969 56.05395508 C-10.46028534 50.85518122 -10.46684624 45.65661387 -10.47882462 40.4578476 C-10.48605047 36.46187788 -10.48375194 32.46595715 -10.47856903 28.46998596 C-10.47723454 26.55302404 -10.47887323 24.63605768 -10.48352814 22.71910095 C-10.48860523 20.04039726 -10.48086645 17.36202836 -10.46972656 14.68334961 C-10.47377502 13.89050064 -10.47782349 13.09765167 -10.48199463 12.28077698 C-10.42729235 5.18310777 -10.42729235 5.18310777 -8.2109375 2.30639648 C-5.46635565 0.49194842 -3.25475565 0.04817655 0 0 Z M14.7890625 25.30639648 C14.7890625 32.56639648 14.7890625 39.82639648 14.7890625 47.30639648 C19.8009375 47.46108398 19.8009375 47.46108398 24.9140625 47.61889648 C25.95578613 47.6644165 26.99750977 47.70993652 28.07080078 47.75683594 C32.47705606 47.82251872 35.82076071 47.8358726 39.40234375 45.06811523 C42.37665683 41.62647964 42.76364453 39.84203571 42.953125 35.45483398 C42.71068355 32.2800055 41.93304674 30.65786307 39.7890625 28.30639648 C34.49517373 24.8789958 29.98547184 24.94198332 23.9140625 25.11889648 C20.9028125 25.18077148 17.8915625 25.24264648 14.7890625 25.30639648 Z " fill="#010101" transform="translate(493.2109375,80.693603515625)"/>
<path d="M0 0 C3.14956875 0.48859658 4.45414717 0.78815465 6.6484375 3.0078125 C7.1846875 3.8328125 7.7209375 4.6578125 8.2734375 5.5078125 C8.6653125 5.0540625 9.0571875 4.6003125 9.4609375 4.1328125 C14.41541484 -0.3091327 20.4483506 0.02995064 26.76171875 0.12890625 C31.8833702 0.68152048 35.21150634 2.4451164 39.2734375 5.5078125 C39.89734375 5.94222656 40.52125 6.37664062 41.1640625 6.82421875 C48.06955799 12.09341205 53.1482678 20.67892583 54.79296875 29.19921875 C55.92621005 40.30498345 54.07952211 49.29508219 47.2265625 58.25 C41.31987235 65.07813381 35.56781471 69.90389252 26.3828125 70.78515625 C19.84901216 70.99036355 15.28925582 69.95822126 9.2734375 67.5078125 C9.25885498 68.36012451 9.24427246 69.21243652 9.22924805 70.09057617 C9.16800465 73.26852425 9.09381721 76.44583796 9.01098633 79.62329102 C8.97783944 80.99557208 8.94977579 82.36798612 8.92700195 83.74047852 C8.89326984 85.71919016 8.8394226 87.69752626 8.78515625 89.67578125 C8.75897217 90.86453857 8.73278809 92.0532959 8.70581055 93.27807617 C8.23802157 96.7723621 7.34927611 98.68825157 5.2734375 101.5078125 C1.0333338 104.41958496 -3.78378062 104.02933437 -8.7265625 103.5078125 C-14.30264946 101.35563859 -14.30264946 101.35563859 -15.7265625 98.5078125 C-15.84607341 95.6054605 -15.90496051 92.72639092 -15.91943359 89.82299805 C-15.92761108 88.9236554 -15.93578857 88.02431274 -15.94421387 87.09771729 C-15.96908258 84.11332877 -15.98558716 81.12898784 -16 78.14453125 C-16.00532368 77.12657785 -16.01064735 76.10862446 -16.01613235 75.05982399 C-16.04286964 69.67245867 -16.06224319 64.28511658 -16.07666016 58.89770508 C-16.09331455 53.32884113 -16.13809754 47.76056824 -16.1890316 42.19192791 C-16.22266122 37.91369433 -16.23423288 33.63560182 -16.23988724 29.35724831 C-16.24661096 27.30430392 -16.26186197 25.25136917 -16.28577805 23.19855309 C-16.31734198 20.32547988 -16.31747958 17.45401109 -16.31005859 14.58081055 C-16.32646393 13.73231033 -16.34286926 12.88381012 -16.35977173 12.00959778 C-16.31422751 7.70346352 -16.11066794 6.00754072 -13.40103149 2.48225403 C-9.07271045 -0.71315292 -5.20193406 -0.16358283 0 0 Z M12.2734375 27.5078125 C9.64502245 30.32397148 8.45342828 32.63801063 8.2734375 36.5078125 C9.45800146 40.3247408 10.49626192 42.79725197 13.4609375 45.5078125 C17.32923275 46.88320637 20.36047101 46.69355992 24.2734375 45.5078125 C27.03444896 43.68671984 28.79444298 42.46580153 30.2734375 39.5078125 C30.77724436 33.77530338 30.77724436 33.77530338 28.5859375 28.6328125 C23.27513384 23.75261454 18.17046125 23.27405186 12.2734375 27.5078125 Z " fill="#010101" transform="translate(658.7265625,108.4921875)"/>
<path d="M0 0 C6.47762524 6.23349364 10.15741091 12.99530863 10.5 22.0625 C10.30092479 27.44439539 9.32139558 31.69408651 6 36 C0.77810714 40.25996523 -5.43740182 40.12638318 -11.9296875 40.09765625 C-13.21875 40.09443359 -14.5078125 40.09121094 -15.8359375 40.08789062 C-17.18229236 40.07953733 -18.52864652 40.07107241 -19.875 40.0625 C-21.24479004 40.0574783 -22.61458185 40.05291657 -23.984375 40.04882812 C-27.3229619 40.03707254 -30.66145815 40.02063964 -34 40 C-29.91620219 44.22106832 -27.31963043 45.80003186 -21.375 46.3125 C-17.84840305 46.24583465 -14.80945682 45.44584923 -11.4375 44.4375 C-6.89410089 43.13669279 -3.59158167 42.3470306 1 44 C4.17131467 46.65486648 5.68728442 49.47669606 6.515625 53.51171875 C6.81043645 57.9941928 6.5354878 60.28091638 3.8125 63.9375 C-6.40608006 70.63898739 -22.02870554 70.49303611 -33.69140625 68.30859375 C-44.11386589 65.42218836 -51.40073012 60.28780968 -57 51 C-62.67021613 40.43854312 -63.31251634 28.44161049 -60 17 C-55.93040832 5.95952879 -48.37220561 0.10334585 -38 -5 C-26.22653768 -10.03939865 -9.89000041 -8.09181852 0 0 Z M-35 23 C-35 23.66 -35 24.32 -35 25 C-31.66749498 26.11083501 -29.06961042 26.16759585 -25.5625 26.1875 C-23.86287109 26.20876953 -23.86287109 26.20876953 -22.12890625 26.23046875 C-19.14542021 26.01071135 -17.50704577 25.55843386 -15 24 C-14.66574265 21.62625139 -14.66574265 21.62625139 -15 19 C-17.31533882 16.31420697 -18.84964317 16.0194907 -22.375 15.5625 C-27.63472353 16.19729422 -31.64736018 18.90232911 -35 23 Z " fill="#020202" transform="translate(625,114)"/>
<path d="M0 0 C9.31487354 6.75446142 14.64049089 14.64501383 17.06640625 25.7890625 C18.48582105 34.83783183 16.75240479 44.67500883 11.81640625 52.4296875 C10.76975202 53.81239983 9.68670447 55.1684389 8.56640625 56.4921875 C8.04046875 57.12769531 7.51453125 57.76320312 6.97265625 58.41796875 C0.96882475 65.03067939 -7.02806763 69.12458762 -15.9375 69.73046875 C-27.37770618 70.04817381 -35.94077888 68.85408914 -44.87109375 61.0546875 C-49.14886623 57.00243186 -52.99570304 52.80726421 -55.62109375 47.4921875 C-55.94464844 46.8528125 -56.26820313 46.2134375 -56.6015625 45.5546875 C-60.30007103 36.38655367 -59.27355317 25.79044345 -55.5625 16.85546875 C-50.33131669 5.90437566 -42.43964314 0.11814338 -31.43359375 -4.5078125 C-20.9430146 -7.96970362 -9.1777496 -5.68637455 0 0 Z M-31.30859375 24.1171875 C-33.05792657 27.81022344 -33.54309802 31.41862881 -33.43359375 35.4921875 C-31.69694857 40.08918944 -28.76136661 42.28747302 -24.43359375 44.4921875 C-19.96233152 45.37573034 -17.11272936 44.84433189 -13.05859375 42.7421875 C-10.02964267 40.14594371 -8.67922013 38.27537125 -8.1328125 34.30859375 C-8.10833379 29.60052203 -8.11293684 26.1341983 -11.43359375 22.4921875 C-18.69713116 18.66232232 -24.83804313 18.50937696 -31.30859375 24.1171875 Z " fill="#020202" transform="translate(777.43359375,112.5078125)"/>
<path d="M0 0 C5.44349518 2.40749493 9.27806265 6.57558455 12.68359375 11.3828125 C13.82276593 14.80032903 13.79697856 17.41769187 13.78125 21.01953125 C13.77802734 22.31826172 13.77480469 23.61699219 13.77148438 24.95507812 C13.76312906 26.32682358 13.75466412 27.69856837 13.74609375 29.0703125 C13.7410771 30.45377445 13.73651448 31.83723813 13.73242188 33.22070312 C13.72061904 36.60811645 13.70415394 39.99544283 13.68359375 43.3828125 C9.87124271 43.47090451 6.05915822 43.5235674 2.24609375 43.5703125 C1.17681641 43.59544922 0.10753906 43.62058594 -0.99414062 43.64648438 C-9.06693624 43.72054672 -17.07966615 43.17965406 -23.25390625 37.3828125 C-23.79917969 36.8878125 -24.34445313 36.3928125 -24.90625 35.8828125 C-26.31640625 34.3828125 -26.31640625 34.3828125 -28.31640625 31.3828125 C-28.31640625 76.2628125 -28.31640625 121.1428125 -28.31640625 167.3828125 C-27.65640625 167.3828125 -26.99640625 167.3828125 -26.31640625 167.3828125 C-26.0841333 166.62564941 -25.85186035 165.86848633 -25.61254883 165.08837891 C-23.1963719 160.0448542 -18.39323027 158.22438324 -13.31640625 156.3828125 C-8.54777792 155.72184139 -3.93071223 155.80590368 0.87109375 156.0078125 C2.72831055 156.04841797 2.72831055 156.04841797 4.62304688 156.08984375 C7.64511318 156.15985301 10.66337962 156.25799704 13.68359375 156.3828125 C13.80826411 160.3661265 13.89842688 164.34866756 13.95825195 168.33349609 C13.99542202 170.34643503 14.05899345 172.35883087 14.12304688 174.37109375 C14.24009406 183.68804936 13.01614863 188.63591765 6.8046875 195.44140625 C6.24910156 195.89644531 5.69351563 196.35148438 5.12109375 196.8203125 C4.56292969 197.29339844 4.00476563 197.76648438 3.4296875 198.25390625 C-1.69902311 201.56978403 -8.47047493 200.7846218 -14.31640625 200.3828125 C-20.44831181 198.61399359 -24.7046921 193.48313856 -28.31640625 188.3828125 C-30.10330753 183.9347768 -30.57057976 180.19022017 -30.58383179 175.41311646 C-30.5883629 174.73576474 -30.59289401 174.05841303 -30.59756243 173.3605355 C-30.61016518 171.10373053 -30.60858878 168.84716817 -30.60693359 166.59033203 C-30.61292139 164.96697684 -30.61972752 163.3436245 -30.62728882 161.72027588 C-30.64492946 157.31939265 -30.64964335 152.91858723 -30.65092039 148.51767206 C-30.65234353 145.76605454 -30.65661619 143.01445671 -30.66191483 140.26284409 C-30.68040798 130.65747576 -30.68858624 121.05216288 -30.68701172 111.44677734 C-30.68581018 102.50239631 -30.70691671 93.55825653 -30.73849905 84.61393654 C-30.76467392 76.92626918 -30.77537852 69.23868057 -30.7741009 61.550969 C-30.77359167 56.96315452 -30.77925357 52.37555456 -30.800457 47.78778458 C-30.81986011 43.47190623 -30.81994983 39.15644663 -30.80542374 34.84055328 C-30.80333717 33.26037101 -30.80802748 31.68016237 -30.82014465 30.10002518 C-30.88717063 20.7509937 -30.83472483 13.44827122 -24.31640625 6.140625 C-23.65640625 5.60179687 -22.99640625 5.06296875 -22.31640625 4.5078125 C-21.65640625 3.95351563 -20.99640625 3.39921875 -20.31640625 2.828125 C-14.19765232 -1.59363077 -7.27711092 -1.93892669 0 0 Z " fill="#5358BD" transform="translate(106.31640625,30.6171875)"/>
<path d="M0 0 C1.76429616 2.25055729 1.69358618 3.54997931 1.6394043 6.38549805 C1.62490234 7.72451172 1.62490234 7.72451172 1.61010742 9.09057617 C1.5849707 10.0193457 1.55983398 10.94811523 1.53393555 11.9050293 C1.51363281 13.31558594 1.51363281 13.31558594 1.49291992 14.75463867 C1.45756651 17.07617968 1.40822229 19.39656583 1.34643555 21.7175293 C2.88364258 21.64791992 2.88364258 21.64791992 4.4519043 21.5769043 C5.8125521 21.53936918 7.1732316 21.50297089 8.53393555 21.4675293 C9.2074707 21.43401367 9.88100586 21.40049805 10.57495117 21.3659668 C14.2368553 21.29451501 16.16794177 21.60218752 19.2722168 23.6081543 C22.52459851 26.91566112 22.52910305 28.97947472 22.59643555 33.5300293 C22.6222168 34.56772461 22.64799805 35.60541992 22.67456055 36.67456055 C22.29795407 40.16713727 21.48956031 41.9517399 19.34643555 44.7175293 C15.88060054 47.32471149 12.30408211 46.92044868 8.09643555 46.8425293 C6.20151367 46.81545898 6.20151367 46.81545898 4.26831055 46.7878418 C2.82198242 46.75303711 2.82198242 46.75303711 1.34643555 46.7175293 C1.48537702 49.82204479 1.63377855 52.92603765 1.78393555 56.0300293 C1.82325195 56.91110352 1.86256836 57.79217773 1.90307617 58.69995117 C1.9449707 59.54750977 1.98686523 60.39506836 2.0300293 61.26831055 C2.08501587 62.43873901 2.08501587 62.43873901 2.14111328 63.6328125 C2.28768818 65.91082031 2.28768818 65.91082031 3.34643555 68.7175293 C4.46791992 68.84708008 4.46791992 68.84708008 5.61206055 68.97924805 C13.45969173 70.09887082 13.45969173 70.09887082 17.03393555 72.5925293 C19.0931798 77.4954918 19.11904864 82.48324961 18.34643555 87.7175293 C17.0065918 90.5300293 17.0065918 90.5300293 15.34643555 92.7175293 C6.95930698 95.51323882 -3.68373563 94.46719831 -11.65356445 90.7175293 C-18.0471017 86.98488616 -20.7984182 81.74609412 -22.65356445 74.7175293 C-23.10592003 69.82673864 -23.03493169 64.99859025 -22.90356445 60.0925293 C-22.88551758 58.80217773 -22.8674707 57.51182617 -22.84887695 56.18237305 C-22.80212524 53.02663231 -22.7366065 49.87248829 -22.65356445 46.7175293 C-23.74926758 46.75491211 -24.8449707 46.79229492 -25.97387695 46.83081055 C-30.3308134 46.69667981 -31.6629947 45.79605698 -34.65356445 42.7175293 C-36.45260523 37.32040695 -36.423312 31.17155502 -34.71606445 25.7175293 C-32.36560717 22.29868233 -31.88465788 22.247527 -28.0246582 21.5300293 C-27.20795654 21.37147461 -26.39125488 21.21291992 -25.54980469 21.04956055 C-24.92404541 20.93999023 -24.29828613 20.83041992 -23.65356445 20.7175293 C-23.64421875 20.16291016 -23.63487305 19.60829102 -23.62524414 19.03686523 C-23.57140724 16.51286449 -23.48779192 13.99069116 -23.40356445 11.4675293 C-23.38938477 10.59483398 -23.37520508 9.72213867 -23.3605957 8.82299805 C-23.11261434 2.32588632 -23.11261434 2.32588632 -20.7199707 -0.8449707 C-14.78497974 -4.97366007 -5.70097645 -4.42156051 0 0 Z " fill="#010101" transform="translate(895.653564453125,87.282470703125)"/>
<path d="M0 0 C0.72387405 -0.0066568 1.44774811 -0.0133136 2.19355774 -0.02017212 C3.7223559 -0.03026659 5.25119784 -0.03499013 6.7800293 -0.03466797 C9.08914304 -0.03901704 11.39630507 -0.07529908 13.70507812 -0.11328125 C23.01942455 -0.18604073 31.37251611 0.18966867 38.86328125 6.3359375 C39.63671875 7.3259375 39.63671875 7.3259375 40.42578125 8.3359375 C40.96203125 8.9959375 41.49828125 9.6559375 42.05078125 10.3359375 C46.07043109 16.18270091 46.12748629 21.34587575 45.42578125 28.3359375 C43.67259058 34.91595057 39.02250301 39.65126303 33.42578125 43.3359375 C28.74797535 45.23094211 24.45595947 45.65621865 19.46484375 45.671875 C18.71544525 45.6785318 17.96604675 45.6851886 17.19393921 45.69204712 C15.61564572 45.70212662 14.03731002 45.7068656 12.45898438 45.70654297 C10.06437858 45.71091269 7.67162378 45.74726896 5.27734375 45.78515625 C-3.85552985 45.85405816 -10.63477388 45.66440574 -17.81640625 39.37109375 C-18.35523438 38.72011719 -18.8940625 38.06914062 -19.44921875 37.3984375 C-20.00351563 36.75003906 -20.5578125 36.10164063 -21.12890625 35.43359375 C-25.22211779 29.49290564 -25.44896588 23.3430265 -24.57421875 16.3359375 C-22.13655506 9.79559875 -16.65297663 4.34625884 -10.43237305 1.28027344 C-6.92564546 0.12164848 -3.65291876 0.01184229 0 0 Z " fill="#6269DC" transform="translate(175.57421875,107.6640625)"/>
<path d="M0 0 C3.43902707 1.9756113 4.58261223 3.54093952 5.75 7.3125 C6.07101274 13.09072931 3.9860364 17.71141217 1.3125 22.75 C-1.81510617 25.30146819 -3.82586135 25.14122672 -7.7578125 24.94140625 C-9.76754849 24.71999466 -11.7623547 24.37057794 -13.75 24 C-17.79462962 23.61843117 -19.68353636 24.51530909 -23.0625 26.6875 C-24.65207177 29.86664355 -24.21971495 33.30836461 -24.23828125 36.80078125 C-24.26148315 38.45769494 -24.28560064 40.11459602 -24.31054688 41.77148438 C-24.34563713 44.38509515 -24.37499097 46.99824306 -24.38842773 49.61206055 C-24.40393116 52.1338723 -24.44415752 54.65432884 -24.48828125 57.17578125 C-24.48637283 57.95303055 -24.48446442 58.73027985 -24.48249817 59.53108215 C-24.5948956 64.53336844 -25.46033214 67.18636291 -29.0625 70.6875 C-31.8819068 72.0972034 -34.29517226 71.85734647 -37.4375 71.875 C-38.57960938 71.88917969 -39.72171875 71.90335937 -40.8984375 71.91796875 C-43.96716859 71.69444389 -45.59226692 71.4753171 -48.0625 69.6875 C-50.17123327 66.37911631 -50.32000807 63.68331738 -50.3371582 59.80493164 C-50.34669022 58.62012711 -50.35622223 57.43532257 -50.36604309 56.21461487 C-50.36513168 54.93851852 -50.36422028 53.66242218 -50.36328125 52.34765625 C-50.36970894 50.37628944 -50.36970894 50.37628944 -50.37626648 48.36509705 C-50.38371971 45.58523522 -50.383444 42.80550041 -50.37817383 40.02563477 C-50.37238043 36.47021872 -50.38931068 32.91532384 -50.4125185 29.35999393 C-50.43082716 25.96002642 -50.42706997 22.56017278 -50.42578125 19.16015625 C-50.434991 17.88608414 -50.44420074 16.61201202 -50.45368958 15.29933167 C-50.44746078 14.11137497 -50.44123199 12.92341827 -50.43481445 11.69946289 C-50.43544388 10.65673721 -50.4360733 9.61401154 -50.4367218 8.53968811 C-50.00406283 5.24211229 -49.01702769 3.35590669 -47.0625 0.6875 C-44.0754054 -0.8060473 -41.0251552 -0.61881228 -37.75 -0.6875 C-36.43386719 -0.73648438 -35.11773438 -0.78546875 -33.76171875 -0.8359375 C-29.26394344 -0.19950467 -27.8816902 1.23031125 -25.0625 4.6875 C-24.59199219 4.33816406 -24.12148438 3.98882812 -23.63671875 3.62890625 C-23.01410156 3.17386719 -22.39148438 2.71882813 -21.75 2.25 C-21.13511719 1.79753906 -20.52023437 1.34507813 -19.88671875 0.87890625 C-14.36595899 -2.72672914 -5.98387446 -2.40614741 0 0 Z " fill="#010101" transform="translate(852.0625,109.3125)"/>
<path d="M0 0 C0.86777573 -0.0127597 1.73555145 -0.02551941 2.62962341 -0.03866577 C4.03124474 -0.04200424 4.03124474 -0.04200424 5.46118164 -0.04541016 C6.42407608 -0.05206696 7.38697052 -0.05872375 8.37904358 -0.06558228 C10.41576222 -0.07570859 12.45251403 -0.0803993 14.48925781 -0.08007812 C17.60610564 -0.08445128 20.72153754 -0.12077121 23.83813477 -0.15869141 C25.81664554 -0.16455954 27.79516305 -0.16852895 29.77368164 -0.17041016 C30.70607162 -0.18478119 31.63846161 -0.19915222 32.59910583 -0.21395874 C39.03219495 -0.16850783 39.03219495 -0.16850783 42.27001953 2.11230469 C44.28790072 5.22118674 44.21499807 7.61362581 44.18383789 11.29052734 C44.19415039 12.50740234 44.20446289 13.72427734 44.21508789 14.97802734 C43.68383789 18.29052734 43.68383789 18.29052734 42.26782227 20.46435547 C38.30574105 23.26446577 34.54963873 22.86308569 29.80883789 22.82177734 C28.8473584 22.82560425 27.88587891 22.82943115 26.89526367 22.83337402 C24.86449129 22.83609337 22.8336839 22.82873064 20.80297852 22.81201172 C17.69476219 22.79060259 14.58885734 22.81181281 11.48071289 22.83740234 C9.50674946 22.83475907 7.53278746 22.82963411 5.55883789 22.82177734 C4.1649585 22.83392273 4.1649585 22.83392273 2.74291992 22.84631348 C-3.6900546 22.75283525 -3.6900546 22.75283525 -6.89086914 20.3894043 C-9.59692726 16.40448109 -9.68173963 11.90885283 -9.02709961 7.22021484 C-7.69526039 1.82513733 -5.43038252 0.05426332 0 0 Z " fill="#010101" transform="translate(397.316162109375,139.70947265625)"/>
<path d="M0 0 C0.33 0 0.66 0 1 0 C1.66 5.28 2.32 10.56 3 16 C4.32 16.33 5.64 16.66 7 17 C7.103125 17.598125 7.20625 18.19625 7.3125 18.8125 C8.1141384 21.36316765 8.90032564 22.36691995 11 24 C13.10332891 24.71447643 13.10332891 24.71447643 15 25 C15 25.66 15 26.32 15 27 C33.315 27.495 33.315 27.495 52 28 C52 28.33 52 28.66 52 29 C47.16200639 29.09951569 42.32461975 29.17177037 37.48583984 29.21972656 C35.8428305 29.23973571 34.19989141 29.26695213 32.55712891 29.30175781 C30.18374212 29.35075305 27.81130351 29.37307504 25.4375 29.390625 C24.35106201 29.42159271 24.35106201 29.42159271 23.24267578 29.45318604 C16.75018706 29.45598774 11.64194285 27.31515201 6.7578125 23.03515625 C6.21898437 22.38417969 5.68015625 21.73320312 5.125 21.0625 C4.57070312 20.41410156 4.01640625 19.76570313 3.4453125 19.09765625 C0.38408566 14.65474053 -0.24268438 11.04213951 -0.125 5.6875 C-0.10695312 4.61886719 -0.08890625 3.55023438 -0.0703125 2.44921875 C-0.04710937 1.64097656 -0.02390625 0.83273438 0 0 Z " fill="#7F8CD6" transform="translate(151,124)"/>
<path d="M0 0 C0.66 0.33 1.32 0.66 2 1 C-0.65356538 3.70028308 -2.09635711 4.00832414 -5.94238281 4.34057617 C-7.52937615 4.34010331 -9.11642107 4.32327908 -10.703125 4.29296875 C-11.54091492 4.28872391 -12.37870483 4.28447906 -13.24188232 4.28010559 C-15.91158502 4.26334408 -18.58052637 4.22569711 -21.25 4.1875 C-23.06248908 4.17244987 -24.87499002 4.15876203 -26.6875 4.14648438 C-31.12529231 4.11344889 -35.56251717 4.06168443 -40 4 C-40 3.67 -40 3.34 -40 3 C-38.96593018 2.98018066 -37.93186035 2.96036133 -36.86645508 2.93994141 C-33.01774381 2.86367773 -29.1694004 2.77499286 -25.32104492 2.68261719 C-23.65770752 2.64441304 -21.99428992 2.60954537 -20.33081055 2.578125 C-17.9350932 2.53228766 -15.53992391 2.47432533 -13.14453125 2.4140625 C-12.4047554 2.40251129 -11.66497955 2.39096008 -10.90278625 2.37905884 C-6.80898618 2.26291306 -3.74077606 1.61163699 0 0 Z " fill="#5F69CA" transform="translate(209,148)"/>
<path d="M0 0 C0.66 0 1.32 0 2 0 C1.814375 1.03125 1.62875 2.0625 1.4375 3.125 C1.02692918 6.76148442 1.221691 9.45437009 2 13 C0.5 11.9375 0.5 11.9375 -1 10 C-1.26641894 6.27013478 -1.1845131 3.55353929 0 0 Z " fill="#141414" transform="translate(667,138)"/>
<path d="M0 0 C3.3 0.33 6.6 0.66 10 1 C10 2.65 10 4.3 10 6 C6.7 4.35 3.4 2.7 0 1 C0 0.67 0 0.34 0 0 Z " fill="#929EEA" transform="translate(104,30)"/>
<path d="M0 0 C2.475 0.495 2.475 0.495 5 1 C5.103125 1.598125 5.20625 2.19625 5.3125 2.8125 C6.08876455 5.28243264 7.07088921 6.32251235 9 8 C6.64277278 7.82539058 5.30294138 7.3003668 3.62109375 5.6328125 C0 1.32051282 0 1.32051282 0 0 Z " fill="#515AAE" transform="translate(79,219)"/>
<path d="M0 0 C0.33 0.66 0.66 1.32 1 2 C-0.60320974 2.19551338 -2.20762986 2.38111983 -3.8125 2.5625 C-4.70582031 2.66691406 -5.59914063 2.77132812 -6.51953125 2.87890625 C-9 3 -9 3 -12 2 C-7.8794254 0.00214565 -4.54805635 -0.17835515 0 0 Z " fill="#0F0F0F" transform="translate(888,84)"/>
<path d="M0 0 C0.66 0.33 1.32 0.66 2 1 C2.33 1.99 2.66 2.98 3 4 C0.03 4 -2.94 4 -6 4 C-4.68 3.34 -3.36 2.68 -2 2 C-1.34 1.34 -0.68 0.68 0 0 Z " fill="#9AA6E4" transform="translate(110,227)"/>
<path d="M0 0 C1.65 1.65 3.3 3.3 5 5 C4.34 5 3.68 5 3 5 C3 5.66 3 6.32 3 7 C2.01 6.67 1.02 6.34 0 6 C0 4.02 0 2.04 0 0 Z " fill="#CDE1F7" transform="translate(81,223)"/>
<path d="M0 0 C-2.55068845 2.35448165 -3.71017358 2.98327924 -7.25 3.1875 C-8.1575 3.125625 -9.065 3.06375 -10 3 C-3.94594595 -1.97297297 -3.94594595 -1.97297297 0 0 Z " fill="#6E78D1" transform="translate(211,149)"/>
</svg>
